<?xml version="1.0" encoding="UTF-8"?>
<svg xmlns="http://www.w3.org/2000/svg" width="240.000mm" height="220.001mm" viewBox="6.999901 -245.000732 240.000092 220.000732">
    <path transform="matrix(1.39598,0,0,-1.39601,-32.190701,8.66593)" style="stroke:#000000;stroke-width:0.05mm;fill:none" d="M28.0739,95.747513L28.0739,52.767105L56.7323,24.115889L114.034729,24.115889L171.344345,24.115889L199.995544,52.767105L199.995544,95.747513"/>
    <path transform="matrix(1.39598,0,0,-1.39601,-32.190701,8.66593)" style="stroke:#000000;stroke-width:0.05mm;fill:none" d="M135.524933,181.708328L92.544525,181.708328"/>
    <path transform="matrix(1.39598,0,0,-1.39601,-32.190701,8.66593)" style="stroke:#000000;stroke-width:0.05mm;fill:none" d="M114.480049,179.56076L127.473289,179.56076L133.966324,179.56076L134.777954,179.56076L135.180176,179.56076L135.388458,179.56076L135.489014,179.56076L135.510574,179.56076L135.524933,179.56076L135.553665,179.56076L135.596756,179.56076L135.991791,179.553574L136.401199,179.546402L136.810608,179.524857L137.241577,179.496124L137.672516,179.460205L138.117844,179.424286L138.570343,179.374008L139.030029,179.316559L139.504074,179.251907L139.985291,179.180084L140.466537,179.093887L140.962128,179.007706L141.464905,178.914322L141.974869,178.806595L142.49202,178.698853L143.016342,178.576752L143.547852,178.447464L144.086548,178.310989L144.632416,178.167343L145.185471,178.009338L145.738525,177.851318L146.305954,177.678925L146.873367,177.499359L147.447983,177.312622L148.022583,177.111511L148.60437,176.9104L149.193344,176.694916L149.78949,176.47226L150.385635,176.242416L150.988983,176.005402L151.592316,175.753998L152.202835,175.502625L152.813354,175.236862L153.431046,174.956741L154.048752,174.67662L154.67363,174.382141L155.298508,174.080475L155.930573,173.771622L156.55545,173.44841L157.187515,173.118011L157.826767,172.780426L158.466019,172.435669L159.098083,172.076538L159.744507,171.71022L160.383759,171.336731L161.02301,170.948883L161.669434,170.553833L162.315872,170.151611L162.955124,169.735016L163.601547,169.311249L164.247971,168.88031L164.894409,168.442169L165.540833,167.989655L166.187256,167.529984L166.833694,167.055939L167.472946,166.574692L168.11937,166.086288L168.758621,165.583511L169.405045,165.073547L170.044296,164.54921L170.683548,164.024887L171.315613,163.479019L171.947678,162.933136L172.579742,162.37291L173.211807,161.798294L173.843872,161.216522L174.46875,160.627548L175.086456,160.031387L175.704163,159.413681L176.321854,158.79599L176.932358,158.163925L177.542892,157.517502L178.153397,156.871063L178.749557,156.203079L179.345703,155.527939L179.941864,154.845581L180.530838,154.14888L181.11261,153.444977L181.694397,152.72673L182.269028,152.001297L182.836426,151.26149L183.403839,150.514496L183.964096,149.753159L184.517166,148.984619L185.063034,148.201721L185.601715,147.411636L186.140411,146.607193L186.664734,145.795563L187.189041,144.969574L187.699005,144.129211L188.208984,143.288849L188.704575,142.426941L189.192993,141.550674L189.67424,140.660034L190.141083,139.747849L190.607956,138.814133L191.053284,137.858841L191.491409,136.882004L191.706879,136.379227L191.922379,135.869263L192.130646,135.359314L192.338943,134.834991L192.547241,134.303467L192.748352,133.764786L192.942291,133.211716L193.143402,132.658661L193.330139,132.091248L193.524063,131.516647L193.710815,130.93486L193.890381,130.338715L194.069931,129.728195L194.249512,129.117676L194.42189,128.492798L194.594284,127.853554L194.759476,127.207123L194.917496,126.54631L195.0755,125.871162L195.233521,125.18882L195.384354,124.492104L195.535187,123.788223L195.678833,123.062767L195.815308,122.330147L195.951782,121.583168L196.081055,120.821823L196.210358,120.046097L196.332458,119.263206L196.454544,118.458763L196.569489,117.639954L196.6772,116.80677L196.777756,115.959244L196.885513,115.097328L196.978897,114.221046L197.07225,113.330406L197.158447,112.418228L197.237442,111.491676L197.316467,110.550774L197.38829,109.595482L197.452942,108.61866L197.517578,107.627457L197.575043,106.614723L197.62532,105.587624L197.675598,104.538971L197.711517,103.475937L197.747406,102.39138L197.776154,101.29245L197.804871,100.171967L197.819229,99.037132L197.833603,97.880737L197.84079,96.702797L197.847977,96.106644L197.847977,95.804985L197.847977,95.769066L197.847977,95.754707L197.847977,95.747513L197.847977,95.740334L197.847977,95.718788L197.847977,95.316566L197.847977,93.729218L197.847977,90.547348L197.847977,65.106735L197.847977,58.750172L197.847977,55.568302L197.847977,53.980953L197.847977,53.779846L197.847977,53.679287L197.84079,53.657738L197.826431,53.643379L197.797699,53.607464L197.539124,53.348892L197.021973,52.831745L188.740479,44.557446L172.184692,27.994469L171.150406,26.960182L170.63327,26.443037L170.503983,26.313753L170.468079,26.285021L170.453705,26.263474L170.39624,26.263474L170.123306,26.263474L169.060287,26.263474L160.534592,26.263474L143.490387,26.263474L109.387619,26.263474L75.292023,26.263474L58.240635,26.263474L57.709129,26.263474L57.644485,26.263474L57.60857,26.277838L57.579842,26.306568L57.515198,26.37121L57.256626,26.629784L56.739479,27.146927L55.698009,28.181215L53.629436,30.24979L37.073643,46.812763L32.936489,50.949917L30.867916,53.01849L30.350771,53.535637L30.286127,53.600281L30.250216,53.636196L30.235851,53.650558L30.228668,53.672108L30.228668,53.866039L30.228668,54.268257L30.228668,55.855602L30.228668,68.575905L30.228668,94.016525L30.228668,95.603867L30.228668,95.70443L30.228668,95.733154L30.228668,95.747513L30.228668,95.754707L30.228668,95.761879L30.228668,95.776253L30.228668,95.819344L30.228668,95.970177L30.228668,96.264664L30.228668,96.860817L30.235851,98.03875L30.250216,99.195152L30.271763,100.329987L30.293312,101.443291L30.329224,102.542213L30.365137,103.619598L30.401049,104.682617L30.451326,105.73127L30.501606,106.75119L30.559065,107.763931L30.623707,108.74794L30.695534,109.724777L30.767359,110.680054L30.839184,111.620956L30.925377,112.547523L31.011566,113.452507L31.104939,114.343147L31.198315,115.219421L31.306051,116.081329L31.406607,116.9217L31.521528,117.754883L31.63645,118.56649L31.751369,119.370941L31.880655,120.153839L32.002758,120.929558L32.139229,121.683723L32.275696,122.430717L32.412163,123.163338L32.555817,123.881577L32.70665,124.592667L32.857483,125.282188L33.015499,125.964531L33.173515,126.632507L33.338715,127.293297L33.503914,127.939743L33.669113,128.578979L33.848679,129.203857L34.021057,129.814377L34.200619,130.417725L34.387367,131.01387L34.574116,131.595657L34.76086,132.170258L34.954788,132.737671L35.155899,133.290741L35.349831,133.836609L35.550941,134.375305L35.759235,134.906799L35.967529,135.423965L36.175823,135.941101L36.3913,136.451065L36.606777,136.946655L37.044914,137.930664L37.497414,138.878769L37.9571,139.8125L38.431145,140.717499L38.905193,141.608124L39.400791,142.484406L39.896389,143.346313L40.406349,144.186676L40.916313,145.027039L41.440636,145.853027L41.972149,146.664658L42.503654,147.469101L43.04953,148.259186L43.595406,149.034897L44.14846,149.810608L44.708698,150.564789L45.268944,151.311768L45.84354,152.051575L46.418152,152.777008L46.992748,153.495255L47.581722,154.199158L48.170692,154.895859L48.759663,155.578201L49.362995,156.246185L49.959148,156.914169L50.569664,157.56778L51.180183,158.207016L51.790703,158.839096L52.408401,159.456787L53.026096,160.067307L53.650982,160.670639L54.275864,161.259613L54.900745,161.841385L55.532814,162.408829L56.164875,162.969055L56.796944,163.52211L57.436192,164.060806L58.075432,164.585129L58.714684,165.109451L59.353931,165.619431L59.993179,166.115005L60.639606,166.610611L61.286037,167.084671L61.925285,167.558716L62.571712,168.018402L63.218147,168.470901L63.864578,168.909027L64.511009,169.347168L65.157433,169.763748L65.803864,170.180344L66.443115,170.582565L67.089539,170.9776L67.72879,171.358292L68.375221,171.731781L69.014465,172.098083L69.653717,172.457214L70.285782,172.801971L70.925026,173.139557L71.557091,173.469955L72.189163,173.793167L72.814041,174.10202L73.438927,174.403687L74.063805,174.690979L74.681503,174.978287L75.299202,175.251221L75.909721,175.516983L76.520241,175.775558L77.123573,176.01976L77.726913,176.256775L78.323059,176.49382L78.912025,176.70929L79.500999,176.924759L80.089973,177.12587L80.664574,177.326996L81.239182,177.513733L81.806602,177.686111L82.366837,177.85849L82.927078,178.023697L83.472954,178.17453L84.018829,178.318176L84.557518,178.454651L85.089027,178.583939L85.61335,178.706039L86.130501,178.813766L86.640457,178.921509L87.143242,179.014877L87.631653,179.101074L88.120071,179.180084L88.601303,179.251907L89.068161,179.316559L89.535027,179.374008L89.987534,179.424286L90.425659,179.467377L90.8638,179.496124L91.287582,179.524857L91.696991,179.546402L92.106384,179.553574L92.501427,179.56076L92.522972,179.56076L92.537331,179.56076L92.544525,179.56076L92.551704,179.56076L92.580437,179.56076L92.630714,179.56076L95.87722,179.56076L102.370262,179.56076L108.863281,179.56076L112.109802,179.56076L112.921432,179.56076L113.330841,179.56076L113.531952,179.56076L113.582222,179.56076L113.589409,179.56076L113.589409,179.553574L113.589409,179.503296L113.589409,179.06517L113.589409,178.849686L113.589409,178.842514L113.582222,178.842514L113.575043,178.842514L113.517593,178.842514L113.41703,178.842514L113.014809,178.842514L112.203178,178.842514L110.579918,178.842514L107.333397,178.842514L94.340164,178.842514L92.716911,178.842514L92.616356,178.842514L92.566063,178.842514L92.544525,178.842514L92.537331,178.842514L92.522972,178.842514L92.479889,178.842514L92.386505,178.842514L91.99865,178.835327L91.603607,178.820953L91.194199,178.799408L90.78479,178.777863L90.353844,178.741959L89.92289,178.698853L89.47757,178.648575L89.017891,178.59111L88.558205,178.526474L88.084152,178.454651L87.602921,178.368454L87.121689,178.282257L86.626099,178.188889L86.116135,178.081146L85.606171,177.966232L85.089027,177.851318L84.564705,177.722031L84.033195,177.585556L83.494499,177.434723L82.948624,177.28389L82.402756,177.118683L81.842514,176.953491L81.282272,176.773926L80.714851,176.587189L80.140251,176.386063L79.565643,176.184967L78.983856,175.969482L78.39489,175.753998L77.805916,175.524155L77.209763,175.279953L76.60643,175.035751L76.003098,174.777176L75.399757,174.511414L74.789246,174.23848L74.171547,173.958359L73.553841,173.663879L72.936142,173.362213L72.311264,173.053375L71.693565,172.730148L71.061493,172.406937L70.436615,172.069351L69.80455,171.724594L69.172485,171.365463L68.533234,170.999161L67.901176,170.625671L67.261925,170.24498L66.622681,169.849945L65.990608,169.447723L65.351364,169.038315L64.71212,168.614548L64.072868,168.183594L63.426441,167.745453L62.787193,167.292953L62.147945,166.833267L61.508698,166.366409L60.876637,165.885178L60.237389,165.396759L59.598141,164.901169L58.966072,164.391205L58.334011,163.874069L57.701942,163.342545L57.069881,162.811035L56.437813,162.25798L55.812931,161.704926L55.188049,161.137512L54.570351,160.55571L53.952652,159.966751L53.334949,159.37059L52.72443,158.760071L52.113918,158.14238L51.503399,157.517502L50.907246,156.87825L50.303913,156.22464L49.70776,155.563843L49.11879,154.895859L48.529823,154.213516L47.948032,153.524002L47.373428,152.820114L46.798824,152.109024L46.231403,151.383591L45.663975,150.65097L45.110924,149.903992L44.557865,149.149826L44.01199,148.388474L43.466118,147.605576L42.934608,146.822678L42.403099,146.018234L41.885956,145.213776L41.368813,144.387787L40.858852,143.561798L40.363255,142.721436L39.867657,141.866714L39.386425,140.99762L38.919559,140.114166L38.452694,139.209167L38.000191,138.282608L37.562057,137.334518L37.346581,136.8461L37.131104,136.357681L36.915627,135.862091L36.707333,135.352127L36.506222,134.842163L36.297928,134.317841L36.096813,133.793518L35.902889,133.254822L35.708958,132.708954L35.51503,132.155884L35.328285,131.58847L35.141537,131.021057L34.954788,130.432083L34.775223,129.843109L34.602844,129.239777L34.430462,128.62207L34.25808,127.997192L34.092884,127.365128L33.927681,126.718697L33.769669,126.057907L33.618835,125.389923L33.460819,124.700401L33.317165,124.010872L33.173515,123.299797L33.029865,122.581551L32.893394,121.841743L32.764111,121.094749L32.634823,120.333397L32.505535,119.557693L32.390617,118.767609L32.275696,117.963158L32.160774,117.144348L32.053036,116.311172L31.95248,115.463638L31.851927,114.601723L31.758551,113.718277L31.672361,112.827629L31.58617,111.915443L31.507162,110.98172L31.435337,110.04081L31.363512,109.078346L31.298868,108.09433L31.241407,107.103127L31.183947,106.083214L31.140854,105.056107L31.090574,104.000267L31.054661,102.937263L31.025932,101.845497L30.997202,100.739403L30.975653,99.618919L30.954105,98.469704L30.946924,97.306129L30.939741,96.12101L30.939741,95.826523L30.939741,95.747513L30.997202,95.747513L31.104939,95.747513L31.535892,95.747513L31.966846,95.747513L32.182323,95.747513L32.297241,95.747513L32.347523,95.747513L32.361885,95.747513L32.369072,95.747513L32.376251,95.747513L32.376251,95.740334L32.376251,94.957436L32.376251,70.062698L32.376251,57.608143L32.376251,56.04953L32.376251,55.273811L32.376251,54.88596L32.376251,54.692032L32.376251,54.591473L32.376251,54.548378L32.404984,54.512466L34.380184,52.537266L38.330589,48.59404L54.125031,32.792416L58.075432,28.849192L58.326824,28.597803L58.448929,28.4757L58.50639,28.411057L58.642857,28.411057L59.691513,28.411057L61.788815,28.411057L65.983429,28.411057L82.761879,28.411057L116.318787,28.411057L149.882858,28.411057L166.661316,28.411057L168.758621,28.411057L169.282944,28.411057L169.548706,28.411057L169.570251,28.425425L169.58461,28.439789L169.613342,28.468519L169.677979,28.533161L170.173584,29.021576L172.148788,30.996778L176.09201,34.947182L191.893631,50.741623L193.868835,52.716831L194.852829,53.708015L195.348434,54.196434L195.592651,54.447819L195.657288,54.50528L195.686035,54.541195L195.693207,54.555565L195.693207,54.584286L195.693207,54.778217L195.693207,60.99831L195.693207,73.452866L195.693207,85.90023L195.693207,92.127518L195.693207,95.244743L195.693207,95.632599L195.693207,95.72596L195.693207,95.747513L195.700394,95.747513L195.707565,95.747513L195.729111,95.747513L195.786591,95.747513L196.65567,95.747513L197.086609,95.747513L197.115356,95.747513L197.122528,95.747513L197.129715,95.761879L197.129715,95.840889L197.129715,95.99173L197.129715,96.286209L197.122528,97.471336L197.10817,98.627724L197.093811,99.769753L197.07225,100.890228L197.043533,101.996338L197.007614,103.08091L196.971695,104.143921L196.928619,105.192581L196.878311,106.226868L196.820862,107.239601L196.763397,108.230797L196.698761,109.207619L196.626938,110.170082L196.555099,111.111008L196.468933,112.037552L196.389908,112.949738L196.296539,113.84037L196.203156,114.716652L196.102615,115.578552L196.00206,116.426102L195.894302,117.25927L195.779388,118.078087L195.664474,118.88253L195.542374,119.665428L195.420258,120.441139L195.290985,121.202499L195.154526,121.942299L195.018051,122.674919L194.881577,123.40036L194.737915,124.104248L194.587097,124.800957L194.436264,125.47612L194.278244,126.151283L194.120209,126.804893L193.955017,127.451317L193.789825,128.083389L193.617447,128.708267L193.445068,129.318787L193.265503,129.922119L193.085938,130.518265L192.906372,131.100052L192.719635,131.66748L192.532883,132.234894L192.338943,132.787949L192.14502,133.326645L191.943909,133.865341L191.742798,134.389664L191.541687,134.914001L191.333389,135.423965L191.125092,135.926743L190.909622,136.422333L190.478668,137.399155L190.03334,138.347244L189.580856,139.266617L189.12117,140.171631L188.647125,141.055069L188.165878,141.924164L187.677475,142.7789L187.174683,143.619247L186.671921,144.445236L186.15477,145.264053L185.630447,146.075684L185.098938,146.872955L184.567413,147.663025L184.021545,148.438751L183.475662,149.200104L182.922623,149.961441L182.362381,150.701263L181.802139,151.433884L181.234711,152.159302L180.660126,152.870392L180.08551,153.574265L179.496536,154.263794L178.914764,154.938965L178.318604,155.61412L177.722458,156.267731L177.126297,156.921341L176.522964,157.560593L175.919632,158.185486L175.309113,158.803177L174.691422,159.413681L174.080887,160.009842L173.456009,160.598816L172.838303,161.173416L172.21344,161.740845L171.588547,162.301071L170.956482,162.846954L170.331604,163.378464L169.699539,163.909973L169.060287,164.427124L168.428223,164.937073L167.788971,165.432678L167.156906,165.921082L166.517654,166.395126L165.878418,166.869186L165.239166,167.321686L164.59993,167.774185L163.960678,168.212326L163.321426,168.643265L162.682175,169.067047L162.042923,169.476456L161.403687,169.878677L160.764435,170.266541L160.125183,170.654388L159.493118,171.027878L158.861069,171.394196L158.221817,171.74614L157.596924,172.090912L156.964859,172.428482L156.339981,172.758881L155.715103,173.074905L155.090225,173.383759L154.472519,173.685425L153.854828,173.972733L153.244293,174.26004L152.633789,174.532974L152.02327,174.798737L151.419937,175.05011L150.823776,175.301514L150.227631,175.538528L149.638657,175.768372L149.049683,175.991028L148.467896,176.199326L147.886124,176.400436L147.318695,176.601547L146.751266,176.7883L146.19104,176.960678L145.630783,177.133057L145.084915,177.291077L144.539047,177.449081L144.000351,177.592728L143.468842,177.729202L142.944519,177.85849L142.427368,177.973419L141.917404,178.088333L141.414642,178.196075L140.919037,178.289459L140.430618,178.375641L139.949387,178.454651L139.482513,178.526474L139.015656,178.59111L138.563156,178.648575L138.117844,178.698853L137.686874,178.741959L137.263107,178.777863L136.846527,178.806595L136.437119,178.820953L136.042068,178.835327L135.661407,178.842514L135.568024,178.842514L135.546478,178.842514L135.53212,178.842514L135.524933,178.842514L135.510574,178.842514L135.410019,178.842514L135.208893,178.842514L131.9552,178.842514L118.969147,178.842514L115.722633,178.842514L114.911003,178.842514L114.501587,178.842514L114.480049,178.842514L114.480049,178.849686L114.480049,178.856873L114.480049,178.90715L114.480049,179.129807L114.480049,179.56076z"/>
    <path transform="matrix(1.39598,0,0,-1.39601,-32.190701,8.66593)" style="stroke:#000000;stroke-width:0.05mm;fill:none" d="M135.524933,181.708328L135.941513,181.708328L136.365295,181.693985L136.803436,181.679611L137.248749,181.650879L137.694061,181.614975L138.153748,181.579056L138.620621,181.528778L139.094666,181.471313L139.575897,181.406677L140.064316,181.342026L140.559906,181.263016L141.062683,181.176834L141.572647,181.083481L142.089783,180.98291L142.61412,180.867981L143.138443,180.753052L143.677139,180.630966L144.215836,180.494492L144.761703,180.358032L145.314758,180.207184L145.867813,180.049179L146.435242,179.883972L147.002655,179.711594L147.577271,179.532028L148.151871,179.338089L148.733658,179.144165L149.322632,178.935883L149.911591,178.720398L150.507751,178.504929L151.103897,178.267899L151.70723,178.030869L152.310562,177.786667L152.921082,177.528091L153.538788,177.262344L154.149307,176.989395L154.766998,176.70929L155.391876,176.421982L156.016769,176.120316L156.641647,175.811462L157.273712,175.495438L157.905777,175.172226L158.537842,174.841827L159.169907,174.497055L159.809158,174.145111L160.448395,173.785995L161.087646,173.412491L161.726898,173.039001L162.36615,172.651138L163.005386,172.256104L163.651825,171.846695L164.291077,171.430099L164.9375,171.006332L165.583923,170.575394L166.223175,170.137253L166.869614,169.684738L167.50885,169.21788L168.155289,168.751022L168.794525,168.269775L169.433777,167.781372L170.073029,167.285767L170.71228,166.775818L171.351532,166.258667L171.983597,165.734344L172.622833,165.195648L173.254898,164.649765L173.879776,164.089539L174.511856,163.529297L175.136734,162.94751L175.761612,162.365723L176.379303,161.769577L176.997009,161.166245L177.614716,160.548538L178.225235,159.923645L178.828568,159.291595L179.4319,158.645157L180.035233,157.991547L180.631393,157.323563L181.227524,156.648407L181.816513,155.966064L182.3983,155.269363L182.980087,154.558289L183.554688,153.847214L184.122101,153.121765L184.689529,152.381973L185.249756,151.634979L185.802826,150.873627L186.348709,150.105103L186.894577,149.329391L187.433258,148.539291L187.964783,147.742035L188.489105,146.930405L189.006256,146.104416L189.523376,145.278412L190.026169,144.430878L190.528946,143.56897L191.017365,142.699875L191.498581,141.802063L191.972656,140.897064L192.439499,139.963333L192.892014,139.008057L193.337311,138.024033L193.559982,137.528442L193.775467,137.018478L193.983749,136.501343L194.199234,135.984192L194.407532,135.452682L194.608643,134.921173L194.809753,134.375305L195.010864,133.82225L195.204788,133.262009L195.398712,132.69458L195.585464,132.112808L195.772202,131.523834L195.958954,130.927673L196.138519,130.324341L196.318085,129.706635L196.490463,129.081757L196.65567,128.44252L196.820862,127.796066L196.986053,127.142464L197.144089,126.474487L197.302109,125.792152L197.452942,125.102623L197.596573,124.405922L197.740234,123.68766L197.883881,122.962219L198.02034,122.229599L198.149643,121.475433L198.278915,120.714081L198.401031,119.938362L198.523132,119.148277L198.638046,118.351021L198.745789,117.532211L198.853546,116.706207L198.954086,115.86586L199.054642,115.003952L199.14801,114.134857L199.234207,113.251411L199.320389,112.353577L199.399399,111.434219L199.478409,110.500488L199.54306,109.55957L199.607697,108.597107L199.672333,107.620293L199.72261,106.621902L199.772903,105.616348L199.823181,104.589249L199.85907,103.540588L199.894989,102.484756L199.923737,101.407379L199.952454,100.308434L199.966827,99.195152L199.981186,98.067482L199.988373,96.918266L199.995544,95.747513"/>
    <path transform="matrix(1.39598,0,0,-1.39601,-32.190701,8.66593)" style="stroke:#000000;stroke-width:0.05mm;fill:none" d="M92.544525,181.708328L92.127922,181.708328L91.704155,181.693985L91.266029,181.679611L90.827896,181.650879L90.375381,181.614975L89.915703,181.579056L89.448845,181.528778L88.974792,181.471313L88.493561,181.406677L88.00515,181.342026L87.509552,181.263016L87.006767,181.176834L86.496811,181.083481L85.97966,180.98291L85.462524,180.867981L84.931015,180.753052L84.399506,180.630966L83.85363,180.494492L83.307755,180.358032L82.7547,180.207184L82.201645,180.049179L81.634216,179.883972L81.066795,179.711594L80.499374,179.532028L79.917587,179.338089L79.3358,179.144165L78.754013,178.935883L78.157867,178.720398L77.561714,178.504929L76.965561,178.267899L76.362221,178.030869L75.758888,177.786667L75.148369,177.528091L74.537857,177.262344L73.920151,176.989395L73.302452,176.70929L72.677574,176.421982L72.052689,176.120316L71.427803,175.811462L70.795746,175.495438L70.17086,175.172226L69.531616,174.841827L68.899544,174.497055L68.2603,174.145111L67.628235,173.785995L66.988991,173.412491L66.34256,173.039001L65.703308,172.651138L65.064064,172.256104L64.417633,171.846695L63.778385,171.430099L63.131958,171.006332L62.492706,170.575394L61.846279,170.137253L61.199848,169.684738L60.5606,169.21788L59.914173,168.751022L59.274925,168.269775L58.635677,167.781372L57.996429,167.285767L57.357182,166.775818L56.71793,166.258667L56.085869,165.734344L55.446621,165.195648L54.814552,164.649765L54.189674,164.089539L53.55761,163.529297L52.932724,162.94751L52.315025,162.365723L51.690144,161.769577L51.072441,161.166245L50.461929,160.548538L49.85141,159.923645L49.240891,159.291595L48.637558,158.645157L48.034225,157.991547L47.438072,157.323563L46.849098,156.648407L46.260128,155.966064L45.671162,155.269363L45.096558,154.558289L44.514771,153.847214L43.94735,153.121765L43.379925,152.381973L42.819687,151.634979L42.266632,150.873627L41.720757,150.105103L41.174881,149.329391L40.636192,148.539291L40.104683,147.742035L39.580357,146.930405L39.06321,146.104416L38.546066,145.278412L38.043289,144.430878L37.540508,143.56897L37.052097,142.699875L36.570866,141.802063L36.096813,140.897064L35.629951,139.963333L35.177448,139.008057L34.732132,138.024033L34.516655,137.528442L34.301178,137.018478L34.085701,136.501343L33.877407,135.984192L33.669113,135.452682L33.460819,134.921173L33.259705,134.375305L33.058594,133.82225L32.864666,133.262009L32.670738,132.69458L32.48399,132.112808L32.297241,131.523834L32.110497,130.927673L31.930933,130.324341L31.758551,129.706635L31.58617,129.081757L31.413788,128.44252L31.24859,127.796066L31.083393,127.142464L30.925377,126.474487L30.767359,125.792152L30.616526,125.102623L30.472874,124.405922L30.329224,123.68766L30.185572,122.962219L30.049103,122.229599L29.919817,121.475433L29.790531,120.714081L29.668428,119.938362L29.546326,119.148277L29.431406,118.351021L29.323666,117.532211L29.215927,116.706207L29.115372,115.86586L29.014814,115.003952L28.921442,114.134857L28.835253,113.251411L28.749062,112.353577L28.670052,111.434219L28.598228,110.500488L28.526403,109.55957L28.46176,108.597107L28.397116,107.620293L28.346838,106.621902L28.29656,105.616348L28.246281,104.589249L28.210369,103.540588L28.174458,102.484756L28.145727,101.407379L28.116997,100.308434L28.102633,99.195152L28.088266,98.067482L28.081083,96.918266L28.0739,95.747513"/>
    <rect transform="matrix(1,0,0,-1,127.018997,-135.895004)" style="stroke:#000000;stroke-width:0.05mm;fill:none" x="-30" y="-15.095551" width="60" height="30.191101"/>
    <path transform="matrix(0,-1,-1,-0,15.3722,-96.351601)" style="stroke:#0000ff;stroke-width:0.05mm;fill:none" d="M11.714844,-3.734375C11.777331,-3.722157,11.820988,-3.665068,11.816406,-3.601563C11.822704,-3.537455,11.778361,-3.479469,11.714844,-3.46875L11.625,-3.457031L10.640625,-3.457031L10.640625,0.601563L9.328125,0.1875C9.266982,0.182615,9.21374,0.143064,9.191406,0.085938C9.167498,0.013801,9.200974,-0.064868,9.269531,-0.097656C9.319013,-0.110401,9.3711,-0.106289,9.417969,-0.085938L10.355469,0.207031L10.355469,-3.457031L9.371094,-3.457031C9.31877,-3.454434,9.266924,-3.468078,9.222656,-3.496094C9.180417,-3.538027,9.16803,-3.601513,9.191406,-3.65625C9.206359,-3.69571,9.240096,-3.725046,9.28125,-3.734375L9.371094,-3.746094L11.625,-3.746094L11.714844,-3.734375M-6.0625,-3.839844C-5.667039,-3.77457,-5.308868,-3.567719,-5.054688,-3.257813C-4.715378,-2.830712,-4.534566,-2.299318,-4.542969,-1.753906C-4.537331,-1.295752,-4.663431,-0.845587,-4.90625,-0.457031C-5.120205,-0.109075,-5.451286,0.151356,-5.839844,0.277344C-6.385398,0.444474,-6.978648,0.297288,-7.382813,-0.105469C-7.779147,-0.476437,-8.013578,-0.988818,-8.035156,-1.53125C-8.075807,-1.95641,-8.008627,-2.385011,-7.839844,-2.777344C-7.634632,-3.233624,-7.258881,-3.591148,-6.792969,-3.773438C-6.558565,-3.855061,-6.30778,-3.87786,-6.0625,-3.839844M2.335938,-3.839844C2.818943,-3.757861,3.24237,-3.469873,3.496094,-3.050781C3.736156,-2.66114,3.860746,-2.211531,3.855469,-1.753906C3.861106,-1.295752,3.735006,-0.845587,3.492188,-0.457031C3.278232,-0.109075,2.947152,0.151356,2.558594,0.277344C2.014209,0.444275,1.422278,0.297044,1.019531,-0.105469C0.622982,-0.476766,0.387423,-0.988545,0.363281,-1.53125C0.321503,-1.956803,0.390126,-2.386029,0.5625,-2.777344C0.766786,-3.234371,1.142763,-3.59211,1.609375,-3.773438C1.842379,-3.855259,2.091961,-3.878071,2.335938,-3.839844M-11.179688,-3.734375C-11.118273,-3.719505,-11.074791,-3.664749,-11.074219,-3.601563C-11.071464,-3.537242,-11.116415,-3.480637,-11.179688,-3.46875L-11.265625,-3.457031L-11.796875,-3.457031L-11.796875,-0.03125L-11.742188,-0.03125L-10.636719,-2.546875L-10.308594,-2.546875L-9.226563,-0.03125L-9.164063,-0.03125L-9.164063,-3.457031L-9.695313,-3.457031C-9.747636,-3.454434,-9.799482,-3.468078,-9.84375,-3.496094C-9.88912,-3.53613,-9.903336,-3.600892,-9.878906,-3.65625C-9.839673,-3.718725,-9.768718,-3.753448,-9.695313,-3.746094L-8.636719,-3.746094C-8.583664,-3.750266,-8.530903,-3.734993,-8.488281,-3.703125C-8.447218,-3.660568,-8.433662,-3.598812,-8.453125,-3.542969C-8.470028,-3.504131,-8.505196,-3.47629,-8.546875,-3.46875C-8.656578,-3.450485,-8.768188,-3.446546,-8.878906,-3.457031L-8.878906,-0.03125C-8.789006,-0.036449,-8.698823,-0.033835,-8.609375,-0.023438C-8.546862,-0.010409,-8.502435,0.045535,-8.503906,0.109375C-8.50338,0.173819,-8.546908,0.230244,-8.609375,0.246094L-8.699219,0.253906L-9.402344,0.253906L-10.472656,-2.21875L-11.5625,0.253906L-12.265625,0.253906C-12.317099,0.260915,-12.369221,0.246828,-12.410156,0.214844C-12.455744,0.173262,-12.469858,0.107391,-12.445313,0.050781C-12.407299,-0.010201,-12.336603,-0.042475,-12.265625,-0.03125L-12.082031,-0.03125L-12.082031,-3.457031C-12.192729,-3.445897,-12.304425,-3.449839,-12.414063,-3.46875C-12.477078,-3.481118,-12.521759,-3.537383,-12.519531,-3.601563C-12.518267,-3.664541,-12.475118,-3.718877,-12.414063,-3.734375L-12.328125,-3.746094L-11.265625,-3.746094L-11.179688,-3.734375M-1.125,-3.734375C-1.063585,-3.719505,-1.020103,-3.664749,-1.019531,-3.601563C-1.016776,-3.537242,-1.061728,-3.480637,-1.125,-3.46875L-1.210938,-3.457031L-1.957031,-3.457031L-1.957031,-0.03125L-0.78125,-0.03125L-0.78125,-1.027344C-0.788073,-1.081245,-0.774104,-1.13572,-0.742188,-1.179688C-0.698727,-1.222092,-0.634131,-1.234396,-0.578125,-1.210938C-0.539616,-1.193611,-0.511935,-1.158645,-0.503906,-1.117188L-0.496094,-1.027344L-0.496094,0.253906L-3.710938,0.253906L-3.710938,-1.027344C-3.712633,-1.080803,-3.699085,-1.133641,-3.671875,-1.179688C-3.628414,-1.222092,-3.563819,-1.234396,-3.507813,-1.210938C-3.469304,-1.193611,-3.441622,-1.158645,-3.433594,-1.117188L-3.425781,-1.027344L-3.425781,-0.03125L-2.25,-0.03125L-2.25,-3.457031L-2.992188,-3.457031C-3.044511,-3.454434,-3.096358,-3.468078,-3.140625,-3.496094C-3.182864,-3.538027,-3.195252,-3.601513,-3.171875,-3.65625C-3.156922,-3.69571,-3.123185,-3.725046,-3.082031,-3.734375L-2.992188,-3.746094L-1.210938,-3.746094L-1.125,-3.734375M5.984375,-3.734375C6.046235,-3.720071,6.089924,-3.665054,6.089844,-3.601563C6.095685,-3.536355,6.049211,-3.477831,5.984375,-3.46875L5.894531,-3.457031L5.367188,-3.457031L5.367188,-1.960938L6.277344,-1.960938C6.656905,-2.149182,6.977244,-2.438434,7.203125,-2.796875C7.406101,-3.105359,7.596372,-3.422043,7.773438,-3.746094L8.15625,-3.746094C8.209305,-3.750266,8.262066,-3.734993,8.304688,-3.703125C8.345751,-3.660568,8.359306,-3.598812,8.339844,-3.542969C8.322941,-3.504131,8.287773,-3.47629,8.246094,-3.46875C8.144171,-3.4515,8.040439,-3.447561,7.9375,-3.457031C7.731421,-3.075906,7.497698,-2.710306,7.238281,-2.363281C7.086565,-2.179677,6.908915,-2.019135,6.710938,-1.886719C6.939268,-1.819684,7.152793,-1.709606,7.339844,-1.5625C7.514184,-1.419668,7.636336,-1.223401,7.6875,-1.003906C7.729468,-0.740053,7.658595,-0.470736,7.492188,-0.261719C7.29596,-0.000993,7.008586,0.176175,6.6875,0.234375L6.429688,0.253906L4.691406,0.253906C4.639932,0.260915,4.58781,0.246828,4.546875,0.214844C4.501288,0.173262,4.487173,0.107391,4.511719,0.050781C4.549733,-0.010201,4.620429,-0.042475,4.691406,-0.03125L5.078125,-0.03125L5.078125,-3.457031L4.691406,-3.457031C4.640388,-3.455136,4.589993,-3.468756,4.546875,-3.496094C4.501505,-3.53613,4.487289,-3.600892,4.511719,-3.65625C4.548916,-3.718854,4.619005,-3.753899,4.691406,-3.746094L5.894531,-3.746094L5.984375,-3.734375M-6.433594,-3.5625C-6.66945,-3.533913,-6.891973,-3.437577,-7.074219,-3.285156C-7.483135,-2.959352,-7.729828,-2.471669,-7.75,-1.949219L-7.757813,-1.753906L-7.730469,-1.394531L-7.648438,-1.058594L-7.515625,-0.75L-7.328125,-0.472656C-7.116702,-0.184188,-6.79612,0.005054,-6.441406,0.050781C-5.970997,0.106814,-5.508321,-0.104178,-5.242188,-0.496094L-5.0625,-0.785156L-4.9375,-1.089844L-4.859375,-1.414063C-4.828124,-1.640855,-4.828124,-1.870862,-4.859375,-2.097656L-4.9375,-2.421875L-5.0625,-2.726563L-5.242188,-3.015625C-5.417888,-3.275262,-5.683815,-3.460437,-5.988281,-3.535156C-6.134044,-3.569851,-6.28468,-3.579101,-6.433594,-3.5625M1.964844,-3.5625C1.62203,-3.510777,1.311316,-3.33243,1.09375,-3.0625C0.8625,-2.803833,0.715362,-2.480948,0.671875,-2.136719C0.649457,-2.010414,0.640292,-1.882114,0.644531,-1.753906L0.667969,-1.394531L0.75,-1.058594L0.882813,-0.75L1.070313,-0.472656C1.281735,-0.184189,1.602317,0.005054,1.957031,0.050781C2.428491,0.106197,2.891907,-0.104446,3.160156,-0.496094L3.335938,-0.785156L3.464844,-1.089844C3.530617,-1.305125,3.564827,-1.528807,3.566406,-1.753906L3.539063,-2.097656L3.464844,-2.421875L3.335938,-2.726563L3.160156,-3.015625C2.89522,-3.40685,2.434085,-3.617826,1.964844,-3.5625M5.367188,-1.671875L5.367188,-0.03125L6.421875,-0.03125C6.801274,-0.025704,7.153515,-0.228055,7.339844,-0.558594C7.386177,-0.645273,7.411593,-0.741589,7.414063,-0.839844C7.400226,-1.062659,7.281323,-1.265664,7.09375,-1.386719C6.81778,-1.581456,6.486061,-1.68152,6.148438,-1.671875L5.367188,-1.671875"/>
    <path transform="matrix(-0,1,1,0,238.604004,-94.621101)" style="stroke:#0000ff;stroke-width:0.05mm;fill:none" d="M11.761719,-3.34375C11.765112,-3.291988,11.74987,-3.24072,11.71875,-3.199219C11.678727,-3.153827,11.613949,-3.139607,11.558594,-3.164063C11.49599,-3.201259,11.460945,-3.271348,11.46875,-3.34375L11.46875,-3.457031L9.265625,-3.457031L9.265625,-3.4375C9.9989,-2.791105,10.704005,-2.113371,11.378906,-1.40625C11.510616,-1.268762,11.616488,-1.10863,11.691406,-0.933594C11.763283,-0.744009,11.776888,-0.53721,11.730469,-0.339844L11.660156,-0.121094C11.588703,0.026965,11.490732,0.160682,11.371094,0.273438L11.167969,0.4375L10.945313,0.554688L10.707031,0.625L10.449219,0.648438C9.991653,0.649526,9.563271,0.424369,9.304688,0.046875C9.205675,-0.08258,9.143559,-0.236519,9.125,-0.398438C9.126051,-0.452481,9.15787,-0.500967,9.207031,-0.523438C9.274091,-0.548361,9.349601,-0.522097,9.386719,-0.460938L9.464844,-0.238281C9.72348,0.260573,10.314947,0.485734,10.839844,0.285156C11.080918,0.187394,11.277198,0.003643,11.390625,-0.230469C11.481386,-0.426027,11.489828,-0.649719,11.414063,-0.851563C11.270113,-1.111056,11.084028,-1.344651,10.863281,-1.542969L10.6875,-1.722656C10.131056,-2.267109,9.563261,-2.79974,8.984375,-3.320313L8.984375,-3.746094L11.761719,-3.746094L11.761719,-3.34375M-6.0625,-3.839844C-5.667039,-3.77457,-5.308868,-3.567719,-5.054688,-3.257813C-4.715378,-2.830712,-4.534566,-2.299318,-4.542969,-1.753906C-4.537331,-1.295752,-4.663431,-0.845587,-4.90625,-0.457031C-5.120205,-0.109075,-5.451286,0.151356,-5.839844,0.277344C-6.385398,0.444474,-6.978648,0.297288,-7.382813,-0.105469C-7.779147,-0.476437,-8.013578,-0.988818,-8.035156,-1.53125C-8.075807,-1.95641,-8.008627,-2.385011,-7.839844,-2.777344C-7.634632,-3.233624,-7.258881,-3.591148,-6.792969,-3.773438C-6.558565,-3.855061,-6.30778,-3.87786,-6.0625,-3.839844M2.335938,-3.839844C2.818943,-3.757861,3.24237,-3.469873,3.496094,-3.050781C3.736156,-2.66114,3.860746,-2.211531,3.855469,-1.753906C3.861106,-1.295752,3.735006,-0.845587,3.492188,-0.457031C3.278232,-0.109075,2.947152,0.151356,2.558594,0.277344C2.014209,0.444275,1.422278,0.297044,1.019531,-0.105469C0.622982,-0.476766,0.387423,-0.988545,0.363281,-1.53125C0.321503,-1.956803,0.390126,-2.386029,0.5625,-2.777344C0.766786,-3.234371,1.142763,-3.59211,1.609375,-3.773438C1.842379,-3.855259,2.091961,-3.878071,2.335938,-3.839844M-11.179688,-3.734375C-11.118273,-3.719505,-11.074791,-3.664749,-11.074219,-3.601563C-11.071464,-3.537242,-11.116415,-3.480637,-11.179688,-3.46875L-11.265625,-3.457031L-11.796875,-3.457031L-11.796875,-0.03125L-11.742188,-0.03125L-10.636719,-2.546875L-10.308594,-2.546875L-9.226563,-0.03125L-9.164063,-0.03125L-9.164063,-3.457031L-9.695313,-3.457031C-9.747636,-3.454434,-9.799482,-3.468078,-9.84375,-3.496094C-9.88912,-3.53613,-9.903336,-3.600892,-9.878906,-3.65625C-9.839673,-3.718725,-9.768718,-3.753448,-9.695313,-3.746094L-8.636719,-3.746094C-8.583664,-3.750266,-8.530903,-3.734993,-8.488281,-3.703125C-8.447218,-3.660568,-8.433662,-3.598812,-8.453125,-3.542969C-8.470028,-3.504131,-8.505196,-3.47629,-8.546875,-3.46875C-8.656578,-3.450485,-8.768188,-3.446546,-8.878906,-3.457031L-8.878906,-0.03125C-8.789006,-0.036449,-8.698823,-0.033835,-8.609375,-0.023438C-8.546862,-0.010409,-8.502435,0.045535,-8.503906,0.109375C-8.50338,0.173819,-8.546908,0.230244,-8.609375,0.246094L-8.699219,0.253906L-9.402344,0.253906L-10.472656,-2.21875L-11.5625,0.253906L-12.265625,0.253906C-12.317099,0.260915,-12.369221,0.246828,-12.410156,0.214844C-12.455744,0.173262,-12.469858,0.107391,-12.445313,0.050781C-12.407299,-0.010201,-12.336603,-0.042475,-12.265625,-0.03125L-12.082031,-0.03125L-12.082031,-3.457031C-12.192729,-3.445897,-12.304425,-3.449839,-12.414063,-3.46875C-12.477078,-3.481118,-12.521759,-3.537383,-12.519531,-3.601563C-12.518267,-3.664541,-12.475118,-3.718877,-12.414063,-3.734375L-12.328125,-3.746094L-11.265625,-3.746094L-11.179688,-3.734375M-1.125,-3.734375C-1.063585,-3.719505,-1.020103,-3.664749,-1.019531,-3.601563C-1.016776,-3.537242,-1.061728,-3.480637,-1.125,-3.46875L-1.210938,-3.457031L-1.957031,-3.457031L-1.957031,-0.03125L-0.78125,-0.03125L-0.78125,-1.027344C-0.788073,-1.081245,-0.774104,-1.13572,-0.742188,-1.179688C-0.698727,-1.222092,-0.634131,-1.234396,-0.578125,-1.210938C-0.539616,-1.193611,-0.511935,-1.158645,-0.503906,-1.117188L-0.496094,-1.027344L-0.496094,0.253906L-3.710938,0.253906L-3.710938,-1.027344C-3.712633,-1.080803,-3.699085,-1.133641,-3.671875,-1.179688C-3.628414,-1.222092,-3.563819,-1.234396,-3.507813,-1.210938C-3.469304,-1.193611,-3.441622,-1.158645,-3.433594,-1.117188L-3.425781,-1.027344L-3.425781,-0.03125L-2.25,-0.03125L-2.25,-3.457031L-2.992188,-3.457031C-3.044511,-3.454434,-3.096358,-3.468078,-3.140625,-3.496094C-3.182864,-3.538027,-3.195252,-3.601513,-3.171875,-3.65625C-3.156922,-3.69571,-3.123185,-3.725046,-3.082031,-3.734375L-2.992188,-3.746094L-1.210938,-3.746094L-1.125,-3.734375M5.984375,-3.734375C6.046235,-3.720071,6.089924,-3.665054,6.089844,-3.601563C6.095685,-3.536355,6.049211,-3.477831,5.984375,-3.46875L5.894531,-3.457031L5.367188,-3.457031L5.367188,-1.960938L6.277344,-1.960938C6.656905,-2.149182,6.977244,-2.438434,7.203125,-2.796875C7.406101,-3.105359,7.596372,-3.422043,7.773438,-3.746094L8.15625,-3.746094C8.209305,-3.750266,8.262066,-3.734993,8.304688,-3.703125C8.345751,-3.660568,8.359306,-3.598812,8.339844,-3.542969C8.322941,-3.504131,8.287773,-3.47629,8.246094,-3.46875C8.144171,-3.4515,8.040439,-3.447561,7.9375,-3.457031C7.731421,-3.075906,7.497698,-2.710306,7.238281,-2.363281C7.086565,-2.179677,6.908915,-2.019135,6.710938,-1.886719C6.939268,-1.819684,7.152793,-1.709606,7.339844,-1.5625C7.514184,-1.419668,7.636336,-1.223401,7.6875,-1.003906C7.729468,-0.740053,7.658595,-0.470736,7.492188,-0.261719C7.29596,-0.000993,7.008586,0.176175,6.6875,0.234375L6.429688,0.253906L4.691406,0.253906C4.639932,0.260915,4.58781,0.246828,4.546875,0.214844C4.501288,0.173262,4.487173,0.107391,4.511719,0.050781C4.549733,-0.010201,4.620429,-0.042475,4.691406,-0.03125L5.078125,-0.03125L5.078125,-3.457031L4.691406,-3.457031C4.640388,-3.455136,4.589993,-3.468756,4.546875,-3.496094C4.501505,-3.53613,4.487289,-3.600892,4.511719,-3.65625C4.548916,-3.718854,4.619005,-3.753899,4.691406,-3.746094L5.894531,-3.746094L5.984375,-3.734375M-6.433594,-3.5625C-6.66945,-3.533913,-6.891973,-3.437577,-7.074219,-3.285156C-7.483135,-2.959352,-7.729828,-2.471669,-7.75,-1.949219L-7.757813,-1.753906L-7.730469,-1.394531L-7.648438,-1.058594L-7.515625,-0.75L-7.328125,-0.472656C-7.116702,-0.184188,-6.79612,0.005054,-6.441406,0.050781C-5.970997,0.106814,-5.508321,-0.104178,-5.242188,-0.496094L-5.0625,-0.785156L-4.9375,-1.089844L-4.859375,-1.414063C-4.828124,-1.640855,-4.828124,-1.870862,-4.859375,-2.097656L-4.9375,-2.421875L-5.0625,-2.726563L-5.242188,-3.015625C-5.417888,-3.275262,-5.683815,-3.460437,-5.988281,-3.535156C-6.134044,-3.569851,-6.28468,-3.579101,-6.433594,-3.5625M1.964844,-3.5625C1.62203,-3.510777,1.311316,-3.33243,1.09375,-3.0625C0.8625,-2.803833,0.715362,-2.480948,0.671875,-2.136719C0.649457,-2.010414,0.640292,-1.882114,0.644531,-1.753906L0.667969,-1.394531L0.75,-1.058594L0.882813,-0.75L1.070313,-0.472656C1.281735,-0.184189,1.602317,0.005054,1.957031,0.050781C2.428491,0.106197,2.891907,-0.104446,3.160156,-0.496094L3.335938,-0.785156L3.464844,-1.089844C3.530617,-1.305125,3.564827,-1.528807,3.566406,-1.753906L3.539063,-2.097656L3.464844,-2.421875L3.335938,-2.726563L3.160156,-3.015625C2.89522,-3.40685,2.434085,-3.617826,1.964844,-3.5625M5.367188,-1.671875L5.367188,-0.03125L6.421875,-0.03125C6.801274,-0.025704,7.153515,-0.228055,7.339844,-0.558594C7.386177,-0.645273,7.411593,-0.741589,7.414063,-0.839844C7.400226,-1.062659,7.281323,-1.265664,7.09375,-1.386719C6.81778,-1.581456,6.486061,-1.68152,6.148438,-1.671875L5.367188,-1.671875"/>
    <path transform="matrix(0,-1,-1,-0,121.40036,-195.554398)" style="stroke:#0000ff;stroke-width:0.05mm;fill:none" d="M-6.628906,-3.835938C-5.853255,-3.731766,-5.199526,-3.20728,-4.929688,-2.472656C-4.853459,-2.21269,-4.816591,-1.942762,-4.820313,-1.671875C-4.81759,-1.312368,-4.860912,-0.95397,-4.949219,-0.605469C-4.998329,-0.424889,-5.065057,-0.249567,-5.148438,-0.082031C-5.273578,0.168076,-5.47091,0.374934,-5.714844,0.511719C-5.883066,0.601691,-6.070948,0.648661,-6.261719,0.648438L-6.519531,0.621094L-6.753906,0.539063L-6.957031,0.402344C-7.568498,-0.153772,-7.632256,-1.092906,-7.101563,-1.726563C-6.892856,-1.964357,-6.593679,-2.103311,-6.277344,-2.109375C-5.925016,-2.094832,-5.594893,-1.933312,-5.367188,-1.664063C-5.271628,-1.558371,-5.189014,-1.441662,-5.121094,-1.316406C-5.098832,-1.578044,-5.105382,-1.841353,-5.140625,-2.101563C-5.292091,-2.945131,-6.025754,-3.558709,-6.882813,-3.558594C-7.012614,-3.554085,-7.140059,-3.523551,-7.257813,-3.46875C-7.329105,-3.439844,-7.41023,-3.472639,-7.441406,-3.542969C-7.455929,-3.584797,-7.450153,-3.631002,-7.425781,-3.667969C-7.31163,-3.776143,-7.161152,-3.837449,-7.003906,-3.839844C-6.879113,-3.851658,-6.753426,-3.850349,-6.628906,-3.835938M-1.84375,-3.820313L-1.613281,-3.742188L-1.40625,-3.609375C-1.113037,-3.342762,-0.91547,-2.987415,-0.84375,-2.597656C-0.801846,-2.38669,-0.780912,-2.172118,-0.78125,-1.957031C-0.776413,-1.656228,-0.777714,-1.35542,-0.785156,-1.054688C-0.806051,-0.57883,-0.966288,-0.119844,-1.246094,0.265625C-1.463438,0.511808,-1.777086,0.651524,-2.105469,0.648438L-2.355469,0.621094L-2.585938,0.542969L-2.792969,0.410156C-3.087063,0.142658,-3.28474,-0.21426,-3.355469,-0.605469C-3.397501,-0.816417,-3.418436,-1.031,-3.417969,-1.246094C-3.422806,-1.546894,-3.421505,-1.847694,-3.414063,-2.148438C-3.399895,-2.479891,-3.316035,-2.804682,-3.167969,-3.101563C-3.07708,-3.347903,-2.904721,-3.556113,-2.679688,-3.691406C-2.502223,-3.795647,-2.299555,-3.849692,-2.09375,-3.847656L-1.84375,-3.820313M-6.441406,-1.800781C-6.618424,-1.755025,-6.776695,-1.655423,-6.894531,-1.515625C-7.03494,-1.362398,-7.126134,-1.17048,-7.15625,-0.964844C-7.191461,-0.742588,-7.174065,-0.5151,-7.105469,-0.300781C-7.014722,-0.050228,-6.833594,0.157373,-6.597656,0.28125C-6.267745,0.424813,-5.883793,0.355424,-5.625,0.105469L-5.496094,-0.046875C-5.350598,-0.293888,-5.242669,-0.561078,-5.175781,-0.839844C-5.270668,-1.028378,-5.37903,-1.209852,-5.5,-1.382813C-5.643225,-1.575136,-5.842411,-1.718386,-6.070313,-1.792969C-6.191443,-1.826257,-6.318982,-1.828942,-6.441406,-1.800781M-2.214844,-3.554688C-2.476745,-3.518633,-2.704313,-3.35671,-2.824219,-3.121094C-3.029544,-2.753724,-3.134626,-2.338787,-3.128906,-1.917969C-3.13919,-1.600192,-3.133975,-1.282114,-3.113281,-0.964844C-3.081895,-0.627873,-2.969296,-0.30348,-2.785156,-0.019531C-2.542413,0.35507,-2.046058,0.469214,-1.664063,0.238281C-1.50076,0.129248,-1.375214,-0.027684,-1.304688,-0.210938C-1.147094,-0.546907,-1.066984,-0.914075,-1.070313,-1.285156C-1.059901,-1.601632,-1.065116,-1.91841,-1.085938,-2.234375C-1.118213,-2.572377,-1.23071,-2.897816,-1.414063,-3.183594C-1.520764,-3.34794,-1.680818,-3.470741,-1.867188,-3.53125C-1.981187,-3.556858,-2.098438,-3.564763,-2.214844,-3.554688M1.125,-3.734375C1.184902,-3.717953,1.226409,-3.663674,1.226563,-3.601563C1.231919,-3.537839,1.187901,-3.480277,1.125,-3.46875C1.015297,-3.450485,0.903687,-3.446546,0.792969,-3.457031L0.792969,-1.554688C0.91651,-1.338732,1.092544,-1.157323,1.304688,-1.027344C1.48045,-0.923944,1.706183,-0.96378,1.835938,-1.121094C1.928335,-1.225244,1.977264,-1.360848,1.972656,-1.5L1.972656,-3.746094L2.503906,-3.746094C2.555668,-3.749487,2.606936,-3.734245,2.648438,-3.703125C2.693829,-3.663102,2.708049,-3.598324,2.683594,-3.542969C2.666691,-3.504132,2.631523,-3.47629,2.589844,-3.46875C2.481502,-3.450016,2.37112,-3.446074,2.261719,-3.457031L2.261719,-1.554688C2.364475,-1.376325,2.499608,-1.21867,2.660156,-1.089844C2.777329,-0.998292,2.927119,-0.958725,3.074219,-0.980469C3.294662,-1.044785,3.442895,-1.251022,3.433594,-1.480469L3.433594,-3.746094L3.960938,-3.746094C4.013992,-3.750266,4.066753,-3.734993,4.109375,-3.703125C4.151599,-3.661183,4.163985,-3.597708,4.140625,-3.542969C4.126884,-3.503394,4.092238,-3.474773,4.050781,-3.46875C3.941078,-3.450485,3.829468,-3.446546,3.71875,-3.457031L3.71875,-1.453125C3.714115,-1.146418,3.537502,-0.868667,3.261719,-0.734375C3.038658,-0.648003,2.78792,-0.672642,2.585938,-0.800781L2.390625,-0.949219L2.199219,-1.15625C2.125744,-0.983618,1.996382,-0.840494,1.832031,-0.75C1.73683,-0.70492,1.632671,-0.682219,1.527344,-0.683594L1.34375,-0.707031C1.209581,-0.747061,1.084747,-0.813462,0.976563,-0.902344L0.792969,-1.074219L0.792969,-0.785156L0.261719,-0.785156C0.2107,-0.783261,0.160306,-0.796881,0.117188,-0.824219C0.0716,-0.8658,0.057485,-0.931671,0.082031,-0.988281C0.117834,-1.052025,0.189623,-1.086359,0.261719,-1.074219L0.507813,-1.074219L0.507813,-3.457031C0.397115,-3.445897,0.285418,-3.449839,0.175781,-3.46875C0.112765,-3.481118,0.068084,-3.537383,0.070313,-3.601563C0.071577,-3.664541,0.114726,-3.718877,0.175781,-3.734375L0.261719,-3.746094L1.035156,-3.746094L1.125,-3.734375M5.324219,-3.734375C5.384121,-3.717953,5.425628,-3.663675,5.425781,-3.601563C5.431138,-3.537839,5.387119,-3.480277,5.324219,-3.46875C5.214516,-3.450485,5.102905,-3.446546,4.992188,-3.457031L4.992188,-1.554688C5.108302,-1.368676,5.256413,-1.204696,5.429688,-1.070313C5.563704,-0.970518,5.739943,-0.948303,5.894531,-1.011719C6.075481,-1.105079,6.184361,-1.296769,6.171875,-1.5L6.171875,-3.746094L6.703125,-3.746094C6.754887,-3.749487,6.806155,-3.734245,6.847656,-3.703125C6.893048,-3.663102,6.907268,-3.598324,6.882813,-3.542969C6.86591,-3.504132,6.830742,-3.47629,6.789063,-3.46875C6.680721,-3.450016,6.570339,-3.446074,6.460938,-3.457031L6.460938,-1.554688C6.563694,-1.376325,6.698826,-1.21867,6.859375,-1.089844C6.976548,-0.998292,7.126338,-0.958725,7.273438,-0.980469C7.496116,-1.041475,7.645964,-1.249959,7.632813,-1.480469L7.632813,-3.746094L8.160156,-3.746094C8.213211,-3.750266,8.265972,-3.734993,8.308594,-3.703125C8.350818,-3.661183,8.363203,-3.597708,8.339844,-3.542969C8.326103,-3.503394,8.291457,-3.474773,8.25,-3.46875C8.140297,-3.450485,8.028687,-3.446546,7.917969,-3.457031L7.917969,-1.453125C7.913846,-1.146215,7.737122,-0.868289,7.460938,-0.734375C7.237867,-0.648163,6.987179,-0.672797,6.785156,-0.800781L6.589844,-0.949219L6.398438,-1.15625C6.327787,-0.981869,6.197626,-0.83786,6.03125,-0.75C5.936048,-0.70492,5.831889,-0.682219,5.726563,-0.683594L5.542969,-0.707031C5.408799,-0.747061,5.283966,-0.813462,5.175781,-0.902344L4.992188,-1.074219L4.992188,-0.785156L4.464844,-0.785156C4.41252,-0.782559,4.360673,-0.796203,4.316406,-0.824219C4.257486,-0.882399,4.257486,-0.976976,4.316406,-1.035156C4.358496,-1.067859,4.412109,-1.081968,4.464844,-1.074219L4.707031,-1.074219L4.707031,-3.457031C4.596313,-3.446546,4.484703,-3.450485,4.375,-3.46875C4.311036,-3.478612,4.266196,-3.537249,4.273438,-3.601563C4.271155,-3.664495,4.313668,-3.720089,4.375,-3.734375L4.464844,-3.746094L5.234375,-3.746094L5.324219,-3.734375"/>
    <path transform="matrix(39.492699,0,0,-39.492699,-4849.569824,4984.47998)" style="stroke:#0000ff;stroke-width:0.05mm;fill:none" d="M126.012733,130.036118L125.992523,130.061142"/>
    <path transform="matrix(5.29176,0,0,-5.29176,-539.762024,928.479004)" style="stroke:#0000ff;stroke-width:0.05mm;fill:none" d="M126,221L125.965263,220.959625"/>
    <path transform="matrix(1,0,0,-0.989404,1.00206,-22.33614)" style="stroke:#0000ff;stroke-width:0.05mm;fill:none" d="M126,221L126.012733,130.036118"/>
    <path transform="matrix(5.12161,0,0,-5.12161,-518.322998,890.875)" style="stroke:#0000ff;stroke-width:0.05mm;fill:none" d="M126,221L126.033798,220.956711"/>
    <path transform="matrix(39.706501,0,0,-39.706501,-4876.509766,5012.290039)" style="stroke:#0000ff;stroke-width:0.05mm;fill:none" d="M126.012733,130.036118L126.035896,130.061142"/>
    <path transform="matrix(24.436199,0,0,-24.378944,-2952.050049,5266.952637)" style="stroke:#0000ff;stroke-width:0.05mm;fill:none" d="M126,221L125.965263,220.959625"/>
    <path transform="matrix(39.706501,0,0,-39.613468,-4876.589844,5120.1875)" style="stroke:#0000ff;stroke-width:0.05mm;fill:none" d="M126.012733,130.036118L126.035896,130.061142"/>
    <path transform="matrix(1,0,0,-0.987086,0.921394,97.353554)" style="stroke:#0000ff;stroke-width:0.05mm;fill:none" d="M126,221L126.012733,130.036118"/>
    <path transform="matrix(23.255199,0,0,-23.200712,-2803.23999,5006.563965)" style="stroke:#0000ff;stroke-width:0.05mm;fill:none" d="M126,221L126.033798,220.956711"/>
    <path transform="matrix(39.492699,0,0,-39.400166,-4849.649902,5092.442383)" style="stroke:#0000ff;stroke-width:0.05mm;fill:none" d="M126.012733,130.036118L125.992523,130.061142"/>
    <path transform="matrix(0,-1,-1,-0,121.718681,-76.001823)" style="stroke:#0000ff;stroke-width:0.05mm;fill:none" d="M-6.628906,-3.835938C-5.853255,-3.731766,-5.199526,-3.20728,-4.929688,-2.472656C-4.853459,-2.21269,-4.816591,-1.942762,-4.820313,-1.671875C-4.81759,-1.312368,-4.860912,-0.95397,-4.949219,-0.605469C-4.998329,-0.424889,-5.065057,-0.249567,-5.148438,-0.082031C-5.273578,0.168076,-5.47091,0.374934,-5.714844,0.511719C-5.883066,0.601691,-6.070948,0.648661,-6.261719,0.648438L-6.519531,0.621094L-6.753906,0.539063L-6.957031,0.402344C-7.568498,-0.153772,-7.632256,-1.092906,-7.101563,-1.726563C-6.892856,-1.964357,-6.593679,-2.103311,-6.277344,-2.109375C-5.925016,-2.094832,-5.594893,-1.933312,-5.367188,-1.664063C-5.271628,-1.558371,-5.189014,-1.441662,-5.121094,-1.316406C-5.098832,-1.578044,-5.105382,-1.841353,-5.140625,-2.101563C-5.292091,-2.945131,-6.025754,-3.558709,-6.882813,-3.558594C-7.012614,-3.554085,-7.140059,-3.523551,-7.257813,-3.46875C-7.329105,-3.439844,-7.41023,-3.472639,-7.441406,-3.542969C-7.455929,-3.584797,-7.450153,-3.631002,-7.425781,-3.667969C-7.31163,-3.776143,-7.161152,-3.837449,-7.003906,-3.839844C-6.879113,-3.851658,-6.753426,-3.850349,-6.628906,-3.835938M-1.84375,-3.820313L-1.613281,-3.742188L-1.40625,-3.609375C-1.113037,-3.342762,-0.91547,-2.987415,-0.84375,-2.597656C-0.801846,-2.38669,-0.780912,-2.172118,-0.78125,-1.957031C-0.776413,-1.656228,-0.777714,-1.35542,-0.785156,-1.054688C-0.806051,-0.57883,-0.966288,-0.119844,-1.246094,0.265625C-1.463438,0.511808,-1.777086,0.651524,-2.105469,0.648438L-2.355469,0.621094L-2.585938,0.542969L-2.792969,0.410156C-3.087063,0.142658,-3.28474,-0.21426,-3.355469,-0.605469C-3.397501,-0.816417,-3.418436,-1.031,-3.417969,-1.246094C-3.422806,-1.546894,-3.421505,-1.847694,-3.414063,-2.148438C-3.399895,-2.479891,-3.316035,-2.804682,-3.167969,-3.101563C-3.07708,-3.347903,-2.904721,-3.556113,-2.679688,-3.691406C-2.502223,-3.795647,-2.299555,-3.849692,-2.09375,-3.847656L-1.84375,-3.820313M-6.441406,-1.800781C-6.618424,-1.755025,-6.776695,-1.655423,-6.894531,-1.515625C-7.03494,-1.362398,-7.126134,-1.17048,-7.15625,-0.964844C-7.191461,-0.742588,-7.174065,-0.5151,-7.105469,-0.300781C-7.014722,-0.050228,-6.833594,0.157373,-6.597656,0.28125C-6.267745,0.424813,-5.883793,0.355424,-5.625,0.105469L-5.496094,-0.046875C-5.350598,-0.293888,-5.242669,-0.561078,-5.175781,-0.839844C-5.270668,-1.028378,-5.37903,-1.209852,-5.5,-1.382813C-5.643225,-1.575136,-5.842411,-1.718386,-6.070313,-1.792969C-6.191443,-1.826257,-6.318982,-1.828942,-6.441406,-1.800781M-2.214844,-3.554688C-2.476745,-3.518633,-2.704313,-3.35671,-2.824219,-3.121094C-3.029544,-2.753724,-3.134626,-2.338787,-3.128906,-1.917969C-3.13919,-1.600192,-3.133975,-1.282114,-3.113281,-0.964844C-3.081895,-0.627873,-2.969296,-0.30348,-2.785156,-0.019531C-2.542413,0.35507,-2.046058,0.469214,-1.664063,0.238281C-1.50076,0.129248,-1.375214,-0.027684,-1.304688,-0.210938C-1.147094,-0.546907,-1.066984,-0.914075,-1.070313,-1.285156C-1.059901,-1.601632,-1.065116,-1.91841,-1.085938,-2.234375C-1.118213,-2.572377,-1.23071,-2.897816,-1.414063,-3.183594C-1.520764,-3.34794,-1.680818,-3.470741,-1.867188,-3.53125C-1.981187,-3.556858,-2.098438,-3.564763,-2.214844,-3.554688M1.125,-3.734375C1.184902,-3.717953,1.226409,-3.663674,1.226563,-3.601563C1.231919,-3.537839,1.187901,-3.480277,1.125,-3.46875C1.015297,-3.450485,0.903687,-3.446546,0.792969,-3.457031L0.792969,-1.554688C0.91651,-1.338732,1.092544,-1.157323,1.304688,-1.027344C1.48045,-0.923944,1.706183,-0.96378,1.835938,-1.121094C1.928335,-1.225244,1.977264,-1.360848,1.972656,-1.5L1.972656,-3.746094L2.503906,-3.746094C2.555668,-3.749487,2.606936,-3.734245,2.648438,-3.703125C2.693829,-3.663102,2.708049,-3.598324,2.683594,-3.542969C2.666691,-3.504132,2.631523,-3.47629,2.589844,-3.46875C2.481502,-3.450016,2.37112,-3.446074,2.261719,-3.457031L2.261719,-1.554688C2.364475,-1.376325,2.499608,-1.21867,2.660156,-1.089844C2.777329,-0.998292,2.927119,-0.958725,3.074219,-0.980469C3.294662,-1.044785,3.442895,-1.251022,3.433594,-1.480469L3.433594,-3.746094L3.960938,-3.746094C4.013992,-3.750266,4.066753,-3.734993,4.109375,-3.703125C4.151599,-3.661183,4.163985,-3.597708,4.140625,-3.542969C4.126884,-3.503394,4.092238,-3.474773,4.050781,-3.46875C3.941078,-3.450485,3.829468,-3.446546,3.71875,-3.457031L3.71875,-1.453125C3.714115,-1.146418,3.537502,-0.868667,3.261719,-0.734375C3.038658,-0.648003,2.78792,-0.672642,2.585938,-0.800781L2.390625,-0.949219L2.199219,-1.15625C2.125744,-0.983618,1.996382,-0.840494,1.832031,-0.75C1.73683,-0.70492,1.632671,-0.682219,1.527344,-0.683594L1.34375,-0.707031C1.209581,-0.747061,1.084747,-0.813462,0.976563,-0.902344L0.792969,-1.074219L0.792969,-0.785156L0.261719,-0.785156C0.2107,-0.783261,0.160306,-0.796881,0.117188,-0.824219C0.0716,-0.8658,0.057485,-0.931671,0.082031,-0.988281C0.117834,-1.052025,0.189623,-1.086359,0.261719,-1.074219L0.507813,-1.074219L0.507813,-3.457031C0.397115,-3.445897,0.285418,-3.449839,0.175781,-3.46875C0.112765,-3.481118,0.068084,-3.537383,0.070313,-3.601563C0.071577,-3.664541,0.114726,-3.718877,0.175781,-3.734375L0.261719,-3.746094L1.035156,-3.746094L1.125,-3.734375M5.324219,-3.734375C5.384121,-3.717953,5.425628,-3.663675,5.425781,-3.601563C5.431138,-3.537839,5.387119,-3.480277,5.324219,-3.46875C5.214516,-3.450485,5.102905,-3.446546,4.992188,-3.457031L4.992188,-1.554688C5.108302,-1.368676,5.256413,-1.204696,5.429688,-1.070313C5.563704,-0.970518,5.739943,-0.948303,5.894531,-1.011719C6.075481,-1.105079,6.184361,-1.296769,6.171875,-1.5L6.171875,-3.746094L6.703125,-3.746094C6.754887,-3.749487,6.806155,-3.734245,6.847656,-3.703125C6.893048,-3.663102,6.907268,-3.598324,6.882813,-3.542969C6.86591,-3.504132,6.830742,-3.47629,6.789063,-3.46875C6.680721,-3.450016,6.570339,-3.446074,6.460938,-3.457031L6.460938,-1.554688C6.563694,-1.376325,6.698826,-1.21867,6.859375,-1.089844C6.976548,-0.998292,7.126338,-0.958725,7.273438,-0.980469C7.496116,-1.041475,7.645964,-1.249959,7.632813,-1.480469L7.632813,-3.746094L8.160156,-3.746094C8.213211,-3.750266,8.265972,-3.734993,8.308594,-3.703125C8.350818,-3.661183,8.363203,-3.597708,8.339844,-3.542969C8.326103,-3.503394,8.291457,-3.474773,8.25,-3.46875C8.140297,-3.450485,8.028687,-3.446546,7.917969,-3.457031L7.917969,-1.453125C7.913846,-1.146215,7.737122,-0.868289,7.460938,-0.734375C7.237867,-0.648163,6.987179,-0.672797,6.785156,-0.800781L6.589844,-0.949219L6.398438,-1.15625C6.327787,-0.981869,6.197626,-0.83786,6.03125,-0.75C5.936048,-0.70492,5.831889,-0.682219,5.726563,-0.683594L5.542969,-0.707031C5.408799,-0.747061,5.283966,-0.813462,5.175781,-0.902344L4.992188,-1.074219L4.992188,-0.785156L4.464844,-0.785156C4.41252,-0.782559,4.360673,-0.796203,4.316406,-0.824219C4.257486,-0.882399,4.257486,-0.976976,4.316406,-1.035156C4.358496,-1.067859,4.412109,-1.081968,4.464844,-1.074219L4.707031,-1.074219L4.707031,-3.457031C4.596313,-3.446546,4.484703,-3.450485,4.375,-3.46875C4.311036,-3.478612,4.266196,-3.537249,4.273438,-3.601563C4.271155,-3.664495,4.313668,-3.720089,4.375,-3.734375L4.464844,-3.746094L5.234375,-3.746094L5.324219,-3.734375"/>
    <path transform="matrix(1,0,0,-1,0,0)" style="stroke:#000000;stroke-width:0.05mm;fill:none" d="M247,64.997269L207.003357,24.999996L47.006691,24.999996L7.000004,64.997269"/>
    <path transform="matrix(1,0,0,-1,0,0)" style="stroke:#000000;stroke-width:0.05mm;fill:none" d="M7.000004,64.997269L7.000004,124.998177"/>
    <path transform="matrix(1,0,0,-1,0,0)" style="stroke:#000000;stroke-width:0.05mm;fill:none" d="M157.019119,150.990417L97.019119,150.990417"/>
    <path transform="matrix(1,0,0,-1,0,0)" style="stroke:#000000;stroke-width:0.05mm;fill:none" d="M97.019119,120.799316L157.019119,120.799316"/>
    <path transform="matrix(1,0,0,-1,0,0)" style="stroke:#000000;stroke-width:0.05mm;fill:none" d="M97.019119,150.990417L97.019119,120.799316"/>
    <path transform="matrix(1,0,0,-1,0,0)" style="stroke:#000000;stroke-width:0.05mm;fill:none" d="M207.003357,24.999996L47.006691,24.999996"/>
    <path transform="matrix(1,0,0,-1,0,0)" style="stroke:#000000;stroke-width:0.05mm;fill:none" d="M7.000004,64.997269L47.006691,24.999996"/>
    <path transform="matrix(1,0,0,-1,0,0)" style="stroke:#000000;stroke-width:0.05mm;fill:none" d="M247,64.997269L207.003357,24.999996"/>
    <rect transform="matrix(1,0,0,-1,174,-216)" style="stroke:#000000;stroke-width:0.05mm;fill:none" x="-6.25" y="-9.25" width="12.5" height="18.5"/>
</svg>
