<?xml version="1.0" encoding="UTF-8"?>
<svg xmlns="http://www.w3.org/2000/svg" width="190.250mm" height="128.304mm" viewBox="13.000000 -130.304001 190.249893 128.304001">
    <path transform="matrix(2.52,0,0,-1.05,76,-65)" style="stroke:#000000;stroke-width:0.05mm;fill:none" d="M25,-60L-25,-60L-25,60L25,60L25,-60z"/>
    <path transform="matrix(-0,-1,-1.03704,0,347.921112,48)" style="stroke:#000000;stroke-width:0.05mm;fill:none" d="M178.304001,148.503998L175,148.503998L175,157.503998L178.304001,157.503998L178.304001,166.503998L55,166.503998L55,157.503998L51.695999,157.503998L51.695999,148.503998L55,148.503998L55,139.503998L133.848007,139.503998L133.848007,145.464005C133.847992,147.673248,135.638763,149.464005,137.848007,149.464005C138.317368,149.477051,138.787048,149.47171,139.255997,149.447998C141.298386,149.238113,142.850113,147.517151,142.848007,145.464005L142.848007,139.503998L178.304001,139.503998L178.304001,148.503998z"/>
    <circle transform="matrix(1,0,0,-1,23.5,-117.5)" style="stroke:#000000;stroke-width:0.05mm;fill:none" r="2" cx="0" cy="0"/>
    <circle transform="matrix(1,0,0,-1,128.5,-117.5)" style="stroke:#000000;stroke-width:0.05mm;fill:none" r="2" cx="0" cy="0"/>
    <circle transform="matrix(1,0,0,-1,23.5,-12.5)" style="stroke:#000000;stroke-width:0.05mm;fill:none" r="2" cx="0" cy="0"/>
    <circle transform="matrix(1,0,0,-1,128.5,-12.5)" style="stroke:#000000;stroke-width:0.05mm;fill:none" r="2" cx="0" cy="0"/>
    <path transform="matrix(0.933333,0,0,-1,135.416794,3)" style="stroke:#000000;stroke-width:0.05mm;fill:none" d="M20,10L20,6.699219L30,6.699219L30,10L40,10L40,133.300781L30,133.300781L30,130L20,130L20,133.300781L10,133.300781L10,10L20,10z"/>
    <path transform="matrix(1.0171,0,0,-1.0171,-40.962299,6.20815)" style="stroke:#000000;stroke-width:0.05mm;fill:none" d="M133.335999,124.512001C109.060303,132.683929,82.306854,123.815063,67.720001,102.760002C66.441376,100.916656,65.273949,98.99855,64.223999,97.015999L116.064003,92.472C116.751129,92.43679,117.43689,92.37809,118.120003,92.295998L118.120003,92.279999C122.554733,91.666458,126.703682,89.738266,130.031998,86.744003L133.335999,124.512001z"/>
    <path transform="matrix(1.0171,0,0,-1.0171,-40.962299,6.20815)" style="stroke:#000000;stroke-width:0.05mm;fill:none" d="M168.576004,49.112C175.432953,66.66655,173.247833,86.467087,162.727997,102.103996C157.4711,109.932167,150.361786,116.340721,142.031998,120.760002L137.328003,66.903999L137.287994,66.903999C136.411346,60.575996,132.88269,54.920799,127.584,51.352001L168.056,47.824001L168.576004,49.112z"/>
    <path transform="matrix(1.0171,0,0,-1.0171,-40.962299,6.20815)" style="stroke:#000000;stroke-width:0.05mm;fill:none" d="M92.528,71.064003C92.562325,71.751213,92.621033,72.436958,92.704002,73.120003L92.720001,73.120003C93.59893,79.442963,97.127579,85.092285,102.424004,88.655998L61.944,92.192001C55.078621,75.815773,56.177399,57.183769,64.919998,41.728001C70.293961,32.174618,78.299606,24.366123,87.984001,19.232L92.528,71.064003z"/>
    <path transform="matrix(1.0171,0,0,-1.0171,-40.962299,6.20815)" style="stroke:#000000;stroke-width:0.05mm;fill:none" d="M116.487999,12.52C137.207458,13.041832,156.039185,24.683266,165.768005,42.984001L113.935997,47.528C113.248894,47.563217,112.563103,47.621918,111.879997,47.703999L111.879997,47.720001C105.557053,48.59893,99.90773,52.127571,96.344002,57.424L92.807999,16.952C100.299911,13.819672,108.370377,12.309189,116.487999,12.52z"/>
</svg>
