<?xml version="1.0" encoding="UTF-8"?>
<svg xmlns="http://www.w3.org/2000/svg" width="256.000mm" height="392.000mm" viewBox="2.500000 -396.000000 256.000000 392.000183">
    <path transform="matrix(-1,-0,-0,1,128,-181.5)" style="stroke:#000000;stroke-width:0.05mm;fill:none" d="M70,52L70,115L60,115L60,110L50,110L50,115L40,115L40,110L30,110L30,115L20,115L20,52L70,52z"/>
    <path transform="matrix(1,0,0,-1,37,-84.5)" style="stroke:#000000;stroke-width:0.05mm;fill:none" d="M70,52L70,115L60,115L60,110L50,110L50,115L40,115L40,110L30,110L30,115L20,115L20,52L70,52z"/>
    <path transform="matrix(1,0,0,-1,-28.000008,18)" style="stroke:#000000;stroke-width:0.05mm;fill:none" d="M140,29.25L150.003906,29.25L150.003906,24.25L160.003906,24.25L160.003906,29.25L169.996094,29.25L169.996094,24.253906L179.996094,24.253906L179.996094,29.25L190,29.25L190,80.75L180.007813,80.75L180.007813,85.746094L170.007813,85.746094L170.007813,80.75L160.007813,80.75L160.007813,85.75L150.007813,85.75L150.007813,80.75L140,80.75L140,29.25z"/>
    <rect transform="matrix(1,0,0,-1,138,-107)" style="stroke:#000000;stroke-width:0.05mm;fill:none" x="-25" y="-35" width="50" height="70"/>
    <path transform="matrix(1,0,0,-1,112.960205,158.490997)" style="stroke:#000000;stroke-width:0.05mm;fill:none" d="M77.559532,180L77.559532,180"/>
    <path transform="matrix(1,0,0,-1,-95,-1.996002)" style="stroke:#000000;stroke-width:0.05mm;fill:none" d="M278,19.504L288,19.504L288,14.504L298,14.504L298,19.504L308,19.504L308,14.504L318,14.504L318,179.503998L308,179.503998L308,174.503998L298,174.503998L298,179.503998L288,179.503998L288,174.503998L278,174.503998L278,179.503998L268,179.503998L268,14.504L278,14.504L278,19.504z"/>
    <path transform="matrix(1,0,0,-1,103,163.5)" style="stroke:#000000;stroke-width:0.05mm;fill:none" d="M70,180L80,180"/>
    <path transform="matrix(1,0,0,-1,112.960205,158.490997)" style="stroke:#000000;stroke-width:0.05mm;fill:none" d="M70,180L80,180"/>
    <path transform="matrix(1,0,0,-1,132.960205,158.490997)" style="stroke:#000000;stroke-width:0.05mm;fill:none" d="M70,180L80,180"/>
    <path transform="matrix(1,0,0,-1,123,163.5)" style="stroke:#000000;stroke-width:0.05mm;fill:none" d="M70,180L80,180"/>
    <path transform="matrix(1,0,0,-1,143,163.5)" style="stroke:#000000;stroke-width:0.05mm;fill:none" d="M70,180L80,180"/>
    <path transform="matrix(1,0,0,-1,103,-1.5)" style="stroke:#000000;stroke-width:0.05mm;fill:none" d="M77.559532,180L77.559532,180"/>
    <path transform="matrix(1,0,0,-1,103,163.5)" style="stroke:#000000;stroke-width:0.05mm;fill:none" d="M77.559532,180L77.559532,180"/>
    <path transform="matrix(1,0,0,-1,123,-1.5)" style="stroke:#000000;stroke-width:0.05mm;fill:none" d="M70,180L80,180"/>
    <path transform="matrix(1,0,0,-1,143,-1.5)" style="stroke:#000000;stroke-width:0.05mm;fill:none" d="M70,180L80,180"/>
    <path transform="matrix(1,0,0,-1,103,-1.5)" style="stroke:#000000;stroke-width:0.05mm;fill:none" d="M70,180L80,180"/>
    <path transform="matrix(1,0,0,-1,113,3.4984)" style="stroke:#000000;stroke-width:0.05mm;fill:none" d="M70,180L80,180"/>
    <path transform="matrix(1,0,0,-1,133,3.4984)" style="stroke:#000000;stroke-width:0.05mm;fill:none" d="M70,180L80,180"/>
    <path transform="matrix(1,0,0,-1,-26.999992,-123)" style="stroke:#000000;stroke-width:0.05mm;fill:none" d="M140,29.25L150.003906,29.25L150.003906,24.25L160.003906,24.25L160.003906,29.25L169.996094,29.25L169.996094,24.253906L179.996094,24.253906L179.996094,29.25L190,29.25L190,80.75L180.007813,80.75L180.007813,85.746094L170.007813,85.746094L170.007813,80.75L160.007813,80.75L160.007813,85.75L150.007813,85.75L150.007813,80.75L140,80.75L140,29.25z"/>
    <rect transform="matrix(1,0,0,-1,27.5,-316)" style="stroke:#0000ff;stroke-width:0.05mm;fill:none" x="-25" y="-80" width="50" height="160"/>
    <path transform="matrix(-0,1,1,0,-39.5,-422)" style="stroke:#0000ff;stroke-width:0.05mm;fill:none" d="M127.080002,92L124.919998,92L124.335999,82L127.664001,82L127.080002,92z"/>
    <path transform="matrix(-0,1,1,0,-39.5,-462)" style="stroke:#0000ff;stroke-width:0.05mm;fill:none" d="M127.080002,92L124.919998,92L124.335999,82L127.664001,82L127.080002,92z"/>
    <path transform="matrix(-0,1,1,0,-39.5,-382)" style="stroke:#0000ff;stroke-width:0.05mm;fill:none" d="M127.080002,92L124.919998,92L124.335999,82L127.664001,82L127.080002,92z"/>
    <path transform="matrix(-0,1,1,0,-39.5,-502)" style="stroke:#0000ff;stroke-width:0.05mm;fill:none" d="M127.080002,92L124.919998,92L124.335999,82L127.664001,82L127.080002,92z"/>
    <rect transform="matrix(1,0,0,-1,82.5,-316)" style="stroke:#0000ff;stroke-width:0.05mm;fill:none" x="-25" y="-80" width="50" height="160"/>
    <path transform="matrix(-0,1,1,0,15.5,-422)" style="stroke:#0000ff;stroke-width:0.05mm;fill:none" d="M127.080002,92L124.919998,92L124.335999,82L127.664001,82L127.080002,92z"/>
    <path transform="matrix(-0,1,1,0,15.5,-462)" style="stroke:#0000ff;stroke-width:0.05mm;fill:none" d="M127.080002,92L124.919998,92L124.335999,82L127.664001,82L127.080002,92z"/>
    <path transform="matrix(-0,1,1,0,15.5,-382)" style="stroke:#0000ff;stroke-width:0.05mm;fill:none" d="M127.080002,92L124.919998,92L124.335999,82L127.664001,82L127.080002,92z"/>
    <path transform="matrix(-0,1,1,0,15.5,-502)" style="stroke:#0000ff;stroke-width:0.05mm;fill:none" d="M127.080002,92L124.919998,92L124.335999,82L127.664001,82L127.080002,92z"/>
    <path transform="matrix(1,0,0,-1,184.996002,-264.506012)" style="stroke:#0000ff;stroke-width:0.05mm;fill:none" d="M24.504,77.503998L73.503998,77.503998L59.504002,97.503998L14.504,127.491997L4.504,77.496002L24.504,77.496002L24.504,77.503998z"/>
    <path transform="matrix(-1,0,0,-1,187.503998,-264.505981)" style="stroke:#0000ff;stroke-width:0.05mm;fill:none" d="M24.504,77.503998L73.503998,77.503998L59.504002,97.503998L14.504,127.491997L4.504,77.496002L24.504,77.496002L24.504,77.503998z"/>
    <path transform="matrix(1,0,0,-1,-57.666,77.014397)" style="stroke:#000000;stroke-width:0.05mm;fill:none" d="M127.080002,92L124.919998,92L124.335999,82L127.664001,82L127.080002,92z"/>
    <path transform="matrix(1,0,0,-1,47,0.000095)" style="stroke:#000000;stroke-width:0.05mm;fill:none" d="M4.333984,4.985653L7.256538,54.985809L9.411423,54.985809L12.333977,4.985653L4.333984,4.985653z"/>
    <path transform="matrix(1,0,0,-1,47,0.000095)" style="stroke:#000000;stroke-width:0.05mm;fill:none" d="M12.334,54.985577L15.256554,4.98542L17.411438,4.98542L20.333992,54.985577L12.334,54.985577z"/>
    <path transform="matrix(1,0,0,-1,-3.56536,-1.52107)" style="stroke:#000000;stroke-width:0.05mm;fill:none" d="M7.712225,60.738411L27.712225,60.738422L27.711975,90.739166L26.087975,90.739159C26.068268,88.939323,25.92392,87.143051,25.655975,85.363159C25.043045,81.039581,23.632484,76.867599,21.495979,73.059158C20.001282,70.389938,18.042671,68.008728,15.711983,66.027153C13.415657,64.061417,10.666534,62.697857,7.71199,62.059151L7.712225,60.738411z"/>
    <path transform="matrix(1,0,0,-1,-3.56536,-1.52107)" style="stroke:#000000;stroke-width:0.05mm;fill:none" d="M26.287781,94.261208L6.287781,94.261208L6.287781,64.2612L7.911781,64.2612C7.931488,66.061035,8.075836,67.857315,8.343781,69.637207C8.956718,73.960785,10.367279,78.132767,12.503784,81.941208C13.998482,84.61042,15.957092,86.991631,18.287781,88.973206C20.584114,90.938942,23.333237,92.302505,26.287781,92.941208L26.287781,94.261208z"/>
    <path transform="matrix(1,0,0,-1,-3.56536,-1.52107)" style="stroke:#000000;stroke-width:0.05mm;fill:none" d="M30.842943,60.696648L50.842945,60.696659L50.842697,90.697403L49.218697,90.697395C49.19899,88.89756,49.054642,87.101288,48.786697,85.321396C48.173767,80.997818,46.763206,76.825836,44.626701,73.017395C43.132004,70.348175,41.173393,67.966965,38.842705,65.98539C36.546379,64.019653,33.797256,62.656094,30.842712,62.017387L30.842943,60.696648z"/>
    <path transform="matrix(1,0,0,-1,-3.56536,-1.52107)" style="stroke:#000000;stroke-width:0.05mm;fill:none" d="M49.418495,94.219444L29.418495,94.219444L29.418495,64.219437L31.042496,64.219437C31.062202,66.019272,31.206551,67.815552,31.474495,69.595444C32.087433,73.919022,33.497993,78.091003,35.634499,81.899445C37.129196,84.568657,39.087807,86.949867,41.418495,88.931442C43.714828,90.897179,46.463951,92.260742,49.418495,92.899445L49.418495,94.219444z"/>
    <path transform="matrix(1,0,0,-1,-3.56536,-1.52107)" style="stroke:#000000;stroke-width:0.05mm;fill:none" d="M7.712225,60.738411L27.712225,60.738422"/>
    <path transform="matrix(1,0,0,-1,-3.56536,-1.52107)" style="stroke:#000000;stroke-width:0.05mm;fill:none" d="M27.712225,60.738422L27.711975,90.739166"/>
    <path transform="matrix(1,0,0,-1,-3.56536,-1.52107)" style="stroke:#000000;stroke-width:0.05mm;fill:none" d="M27.711975,90.739166L26.087975,90.739159"/>
    <path transform="matrix(1,0,0,-1,-3.56536,-1.52107)" style="stroke:#000000;stroke-width:0.05mm;fill:none" d="M26.087975,90.739159C26.068268,88.939323,25.92392,87.143051,25.655975,85.363159"/>
    <path transform="matrix(1,0,0,-1,-3.56536,-1.52107)" style="stroke:#000000;stroke-width:0.05mm;fill:none" d="M25.655975,85.363159C25.043045,81.039581,23.632484,76.867599,21.495979,73.059158"/>
    <path transform="matrix(1,0,0,-1,-3.56536,-1.52107)" style="stroke:#000000;stroke-width:0.05mm;fill:none" d="M21.495979,73.059158C20.001282,70.389938,18.042671,68.008728,15.711983,66.027153"/>
    <path transform="matrix(1,0,0,-1,-3.56536,-1.52107)" style="stroke:#000000;stroke-width:0.05mm;fill:none" d="M15.711983,66.027153C13.415657,64.061417,10.666534,62.697857,7.71199,62.059151"/>
    <path transform="matrix(1,0,0,-1,-3.56536,-1.52107)" style="stroke:#000000;stroke-width:0.05mm;fill:none" d="M7.71199,62.059151L7.712225,60.738411"/>
    <path transform="matrix(1,0,0,-1,-3.56536,-1.52107)" style="stroke:#000000;stroke-width:0.05mm;fill:none" d="M26.287781,94.261208L6.287781,94.261208"/>
    <path transform="matrix(1,0,0,-1,-3.56536,-1.52107)" style="stroke:#000000;stroke-width:0.05mm;fill:none" d="M6.287781,94.261208L6.287781,64.2612"/>
    <path transform="matrix(1,0,0,-1,-3.56536,-1.52107)" style="stroke:#000000;stroke-width:0.05mm;fill:none" d="M6.287781,64.2612L7.911781,64.2612"/>
    <path transform="matrix(1,0,0,-1,-3.56536,-1.52107)" style="stroke:#000000;stroke-width:0.05mm;fill:none" d="M7.911781,64.2612C7.931488,66.061035,8.075836,67.857315,8.343781,69.637207"/>
    <path transform="matrix(1,0,0,-1,-3.56536,-1.52107)" style="stroke:#000000;stroke-width:0.05mm;fill:none" d="M8.343781,69.637207C8.956718,73.960785,10.367279,78.132767,12.503784,81.941208"/>
    <path transform="matrix(1,0,0,-1,-3.56536,-1.52107)" style="stroke:#000000;stroke-width:0.05mm;fill:none" d="M12.503784,81.941208C13.998482,84.61042,15.957092,86.991631,18.287781,88.973206"/>
    <path transform="matrix(1,0,0,-1,-3.56536,-1.52107)" style="stroke:#000000;stroke-width:0.05mm;fill:none" d="M18.287781,88.973206C20.584114,90.938942,23.333237,92.302505,26.287781,92.941208"/>
    <path transform="matrix(1,0,0,-1,-3.56536,-1.52107)" style="stroke:#000000;stroke-width:0.05mm;fill:none" d="M26.287781,92.941208L26.287781,94.261208"/>
    <path transform="matrix(1,0,0,-1,-3.56536,-1.52107)" style="stroke:#000000;stroke-width:0.05mm;fill:none" d="M30.842943,60.696648L50.842945,60.696659"/>
    <path transform="matrix(1,0,0,-1,-3.56536,-1.52107)" style="stroke:#000000;stroke-width:0.05mm;fill:none" d="M50.842945,60.696659L50.842697,90.697403"/>
    <path transform="matrix(1,0,0,-1,-3.56536,-1.52107)" style="stroke:#000000;stroke-width:0.05mm;fill:none" d="M50.842697,90.697403L49.218697,90.697395"/>
    <path transform="matrix(1,0,0,-1,-3.56536,-1.52107)" style="stroke:#000000;stroke-width:0.05mm;fill:none" d="M49.218697,90.697395C49.19899,88.89756,49.054642,87.101288,48.786697,85.321396"/>
    <path transform="matrix(1,0,0,-1,-3.56536,-1.52107)" style="stroke:#000000;stroke-width:0.05mm;fill:none" d="M48.786697,85.321396C48.173767,80.997818,46.763206,76.825836,44.626701,73.017395"/>
    <path transform="matrix(1,0,0,-1,-3.56536,-1.52107)" style="stroke:#000000;stroke-width:0.05mm;fill:none" d="M44.626701,73.017395C43.132004,70.348175,41.173393,67.966965,38.842705,65.98539"/>
    <path transform="matrix(1,0,0,-1,-3.56536,-1.52107)" style="stroke:#000000;stroke-width:0.05mm;fill:none" d="M38.842705,65.98539C36.546379,64.019653,33.797256,62.656094,30.842712,62.017387"/>
    <path transform="matrix(1,0,0,-1,-3.56536,-1.52107)" style="stroke:#000000;stroke-width:0.05mm;fill:none" d="M30.842712,62.017387L30.842943,60.696648"/>
    <path transform="matrix(1,0,0,-1,-3.56536,-1.52107)" style="stroke:#000000;stroke-width:0.05mm;fill:none" d="M49.418495,94.219444L29.418495,94.219444"/>
    <path transform="matrix(1,0,0,-1,-3.56536,-1.52107)" style="stroke:#000000;stroke-width:0.05mm;fill:none" d="M29.418495,94.219444L29.418495,64.219437"/>
    <path transform="matrix(1,0,0,-1,-3.56536,-1.52107)" style="stroke:#000000;stroke-width:0.05mm;fill:none" d="M29.418495,64.219437L31.042496,64.219437"/>
    <path transform="matrix(1,0,0,-1,-3.56536,-1.52107)" style="stroke:#000000;stroke-width:0.05mm;fill:none" d="M31.042496,64.219437C31.062202,66.019272,31.206551,67.815552,31.474495,69.595444"/>
    <path transform="matrix(1,0,0,-1,-3.56536,-1.52107)" style="stroke:#000000;stroke-width:0.05mm;fill:none" d="M31.474495,69.595444C32.087433,73.919022,33.497993,78.091003,35.634499,81.899445"/>
    <path transform="matrix(1,0,0,-1,-3.56536,-1.52107)" style="stroke:#000000;stroke-width:0.05mm;fill:none" d="M35.634499,81.899445C37.129196,84.568657,39.087807,86.949867,41.418495,88.931442"/>
    <path transform="matrix(1,0,0,-1,-3.56536,-1.52107)" style="stroke:#000000;stroke-width:0.05mm;fill:none" d="M41.418495,88.931442C43.714828,90.897179,46.463951,92.260742,49.418495,92.899445"/>
    <path transform="matrix(1,0,0,-1,-3.56536,-1.52107)" style="stroke:#000000;stroke-width:0.05mm;fill:none" d="M49.418495,92.899445L49.418495,94.219444"/>
    <path transform="matrix(1,0,0,-1,-81.332001,76.999901)" style="stroke:#000000;stroke-width:0.05mm;fill:none" d="M127.080002,92L124.919998,92L124.335999,82L127.664001,82L127.080002,92z"/>
    <path transform="matrix(1,0,0,-1,23.334,-0.014385)" style="stroke:#000000;stroke-width:0.05mm;fill:none" d="M4.333984,4.985653L7.256538,54.985809L9.411423,54.985809L12.333977,4.985653L4.333984,4.985653z"/>
    <path transform="matrix(1,0,0,-1,23.334,-0.014385)" style="stroke:#000000;stroke-width:0.05mm;fill:none" d="M12.334,54.985577L15.256554,4.98542L17.411438,4.98542L20.333992,54.985577L12.334,54.985577z"/>
    <path transform="matrix(1,0,0,-1,-103.332001,77.999901)" style="stroke:#000000;stroke-width:0.05mm;fill:none" d="M127.080002,92L124.919998,92L124.335999,82L127.664001,82L127.080002,92z"/>
    <path transform="matrix(1,0,0,-1,1.33401,0.985615)" style="stroke:#000000;stroke-width:0.05mm;fill:none" d="M4.333984,4.985653L7.256538,54.985809L9.411423,54.985809L12.333977,4.985653L4.333984,4.985653z"/>
    <path transform="matrix(1,0,0,-1,1.33401,0.985615)" style="stroke:#000000;stroke-width:0.05mm;fill:none" d="M12.334,54.985577L15.256554,4.98542L17.411438,4.98542L20.333992,54.985577L12.334,54.985577z"/>
    <path transform="matrix(1,0,0,-1,-35.332001,75.999901)" style="stroke:#000000;stroke-width:0.05mm;fill:none" d="M127.080002,92L124.919998,92L124.335999,82L127.664001,82L127.080002,92z"/>
    <path transform="matrix(1,0,0,-1,69.334,-1.01439)" style="stroke:#000000;stroke-width:0.05mm;fill:none" d="M4.333984,4.985653L7.256538,54.985809L9.411423,54.985809L12.333977,4.985653L4.333984,4.985653z"/>
    <path transform="matrix(1,0,0,-1,69.334,-1.01439)" style="stroke:#000000;stroke-width:0.05mm;fill:none" d="M12.334,54.985577L15.256554,4.98542L17.411438,4.98542L20.333992,54.985577L12.334,54.985577z"/>
</svg>
