<?xml version="1.0" encoding="UTF-8"?>
<svg xmlns="http://www.w3.org/2000/svg" width="405.000mm" height="397.000mm" viewBox="4.000000 -400.000122 404.999939 397.000122">
    <path transform="matrix(1,0,0,-1,108.703003,-148.643997)" style="stroke:none;fill:#00a0ff;fill-rule:evenodd" d="M46.806004,26.019266L46.612076,26.019266L46.806004,26.019266z"/>
    <path transform="matrix(5.28623,0,0,-5.28738,-112.7509,-17.703018)" style="stroke:#000000;stroke-width:0.05mm;fill:none" d="M86.877487,44.453293C86.877487,50.461037,82.007248,55.331276,75.999504,55.331276C69.99176,55.331276,65.121529,50.461037,65.121529,44.453293C65.121529,38.445553,69.99176,33.575314,75.999504,33.575314C82.007248,33.575314,86.877487,38.445553,86.877487,44.453293z"/>
    <path transform="matrix(1,0,0,-1,107.359001,-93.807899)" style="stroke:none;fill:#00a0ff;fill-rule:evenodd" d="M123.285873,30.695112L138.419495,30.695112"/>
    <path transform="matrix(1,0,0,-1,107.359001,-93.807899)" style="stroke:#ff00ff;stroke-width:0.05mm;fill:none" d="M123.285873,31.262533L138.18248,31.262533"/>
    <path transform="matrix(1,0,0,-1,107.359001,-93.807899)" style="stroke:#ff00ff;stroke-width:0.05mm;fill:none" d="M123.285873,31.829954L137.94545,31.829954"/>
    <path transform="matrix(1,0,0,-1,107.359001,-93.807899)" style="stroke:none;fill:#00a0ff;fill-rule:evenodd" d="M145.982742,38.265522L145.982742,49.606781"/>
    <path transform="matrix(1,0,0,-1,107.359001,-93.807899)" style="stroke:#ff00ff;stroke-width:0.05mm;fill:none" d="M145.415314,38.495365L145.415314,49.606781"/>
    <path transform="matrix(1,0,0,-1,107.359001,-93.807899)" style="stroke:#ff00ff;stroke-width:0.05mm;fill:none" d="M144.847885,38.732391L144.847885,49.606781"/>
    <path transform="matrix(1,0,0,-1,107.359001,-93.807899)" style="stroke:none;fill:#00a0ff;fill-rule:evenodd" d="M138.419495,30.695112L145.982742,38.265522"/>
    <path transform="matrix(1,0,0,-1,107.359001,-93.807899)" style="stroke:#ff00ff;stroke-width:0.05mm;fill:none" d="M138.18248,31.262533L145.415314,38.495365"/>
    <path transform="matrix(1,0,0,-1,107.359001,-93.807899)" style="stroke:#ff00ff;stroke-width:0.05mm;fill:none" d="M137.94545,31.829954L144.847885,38.732391"/>
    <path transform="matrix(1,0,0,-1,107.359001,-93.807899)" style="stroke:none;fill:#00a0ff;fill-rule:evenodd" d="M123.285873,72.303658L128.960083,72.303658"/>
    <path transform="matrix(1,0,0,-1,107.359001,-93.807899)" style="stroke:#ff00ff;stroke-width:0.05mm;fill:none" d="M123.285873,71.736237L128.960083,71.736237"/>
    <path transform="matrix(1,0,0,-1,107.359001,-93.807899)" style="stroke:#ff00ff;stroke-width:0.05mm;fill:none" d="M123.285873,71.549484L128.960083,71.549484"/>
    <path transform="matrix(1,0,0,-1,107.359001,-93.807899)" style="stroke:none;fill:#00a0ff;fill-rule:evenodd" d="M123.285873,30.695112L108.152206,30.695112"/>
    <path transform="matrix(1,0,0,-1,107.359001,-93.807899)" style="stroke:#ff00ff;stroke-width:0.05mm;fill:none" d="M123.285873,31.262533L108.389236,31.262533"/>
    <path transform="matrix(1,0,0,-1,107.359001,-93.807899)" style="stroke:#ff00ff;stroke-width:0.05mm;fill:none" d="M123.285873,31.829954L108.626259,31.829954"/>
    <path transform="matrix(1,0,0,-1,107.359001,-93.807899)" style="stroke:none;fill:#00a0ff;fill-rule:evenodd" d="M100.588982,38.265522L100.588982,49.606781"/>
    <path transform="matrix(1,0,0,-1,107.359001,-93.807899)" style="stroke:#ff00ff;stroke-width:0.05mm;fill:none" d="M101.156403,38.495365L101.156403,49.606781"/>
    <path transform="matrix(1,0,0,-1,107.359001,-93.807899)" style="stroke:#ff00ff;stroke-width:0.05mm;fill:none" d="M101.723831,38.732391L101.723831,49.606781"/>
    <path transform="matrix(1,0,0,-1,107.359001,-93.807899)" style="stroke:none;fill:#00a0ff;fill-rule:evenodd" d="M108.152206,30.695112L100.588982,38.265522"/>
    <path transform="matrix(1,0,0,-1,107.359001,-93.807899)" style="stroke:#ff00ff;stroke-width:0.05mm;fill:none" d="M108.389236,31.262533L101.156403,38.495365"/>
    <path transform="matrix(1,0,0,-1,107.359001,-93.807899)" style="stroke:#ff00ff;stroke-width:0.05mm;fill:none" d="M108.626259,31.829954L101.723831,38.732391"/>
    <path transform="matrix(1,0,0,-1,107.359001,-93.807899)" style="stroke:none;fill:#00a0ff;fill-rule:evenodd" d="M123.285873,72.303658L117.611641,72.303658"/>
    <path transform="matrix(1,0,0,-1,107.359001,-93.807899)" style="stroke:#ff00ff;stroke-width:0.05mm;fill:none" d="M123.285873,71.736237L117.611641,71.736237"/>
    <path transform="matrix(1,0,0,-1,107.359001,-93.807899)" style="stroke:#ff00ff;stroke-width:0.05mm;fill:none" d="M123.285873,71.549484L117.611641,71.549484"/>
    <path transform="matrix(1,0,0,-1,107.359001,-93.807899)" style="stroke:none;fill:#00a0ff;fill-rule:evenodd" d="M128.960083,72.303658L129.182739,72.303658L129.412582,72.289291L129.656784,72.267738L129.901001,72.246193L130.159561,72.210281L130.425323,72.167191L130.691071,72.109726L130.971191,72.052269L131.251312,71.987625L131.545807,71.908615L131.840286,71.822426L132.141953,71.72905L132.443619,71.628494L132.759644,71.52076L133.075684,71.398651L133.391724,71.269371L133.714935,71.132896L134.038147,70.98925L134.368546,70.83123L134.698944,70.666031L135.03653,70.493652L135.3741,70.306908L135.711685,70.112976L136.049271,69.911865L136.386841,69.703575L136.724411,69.480911L137.062012,69.251068L137.406769,69.006859L137.744354,68.75547L138.081924,68.496902L138.419495,68.223961L138.757095,67.943848L139.087479,67.65654L139.417877,67.354874L139.748276,67.038841L140.071487,66.715622L140.394699,66.385231L140.710739,66.040466L141.026764,65.688522L141.335617,65.322212L141.64447,64.948715L141.938965,64.56086L142.233444,64.165817L142.520752,63.756413L142.808044,63.339825L143.080978,62.908871L143.353928,62.463554L143.612488,62.003872L143.863876,61.529827L144.108093,61.034225L144.223007,60.77565L144.337921,60.502712L144.45285,60.229774L144.560593,59.949657L144.66832,59.662357L144.76889,59.360691L144.869446,59.059025L144.962814,58.735809L145.056183,58.412594L145.14238,58.075012L145.228577,57.723072L145.307571,57.363941L145.386581,56.990448L145.45842,56.602585L145.530228,56.200363L145.594879,55.790962L145.652344,55.360004L145.709793,54.921875L145.760071,54.462189L145.803177,53.995319L145.846268,53.506908L145.882187,53.004128L145.910919,52.479801L145.939636,51.941113L145.953995,51.388058L145.968369,50.813446L145.982742,50.224476L145.982742,49.606781"/>
    <path transform="matrix(1,0,0,-1,107.359001,-93.807899)" style="stroke:#ff00ff;stroke-width:0.05mm;fill:none" d="M128.960083,71.736237L129.161194,71.736237L129.376663,71.721863L129.599319,71.707504L129.829163,71.678772L130.073364,71.65004L130.324768,71.606949L130.576157,71.556671L130.841904,71.499214L131.114838,71.43457L131.394958,71.36274L131.675079,71.28373L131.969574,71.190361L132.264053,71.089806L132.558548,70.982063L132.867386,70.867142L133.176239,70.745041L133.485092,70.615753L133.801132,70.472107L134.124344,70.321266L134.447556,70.163254L134.770767,69.990875L135.093979,69.81131L135.424377,69.624565L135.747589,69.430634L136.077988,69.222343L136.408386,69.006859L136.738785,68.784203L137.069183,68.54718L137.399582,68.302971L137.72998,68.051582L138.060379,67.785828L138.383591,67.512894L138.706818,67.232773L139.030029,66.938286L139.353241,66.63662L139.669281,66.320587L139.985291,65.997368L140.294144,65.65979L140.595825,65.315025L140.897476,64.963081L141.199158,64.596771L141.48645,64.216095L141.773758,63.835423L142.053879,63.433197L142.334,63.023792L142.599747,62.607204L142.865509,62.176254L143.116898,61.730934L143.361099,61.271248L143.590942,60.79002L143.705856,60.545811L143.813599,60.287239L143.921341,60.021488L144.029083,59.74855L144.129639,59.475613L144.230194,59.181126L144.323563,58.886642L144.416946,58.577789L144.510315,58.261761L144.596497,57.931358L144.675522,57.593781L144.754517,57.241833L144.833527,56.875523L144.90535,56.502033L144.970001,56.106991L145.034637,55.704773L145.092102,55.288185L145.14238,54.857224L145.192657,54.404728L145.242935,53.945045L145.278854,53.463814L145.314758,52.968216L145.343491,52.451073L145.372223,51.919559L145.386581,51.373688L145.40094,50.806267L145.415314,50.217293L145.415314,49.606781"/>
    <path transform="matrix(1,0,0,-1,107.359001,-93.807899)" style="stroke:#ff00ff;stroke-width:0.05mm;fill:none" d="M128.960083,71.549484L129.154007,71.542305L129.362305,71.535118L129.584961,71.52076L129.807617,71.492027L130.044647,71.463295L130.288849,71.420197L130.540253,71.369919L130.798813,71.312462L131.071747,71.255005L131.344681,71.175995L131.624802,71.096985L131.912109,71.010796L132.199417,70.91024L132.493896,70.809685L132.795563,70.694763L133.104401,70.572655L133.413254,70.436188L133.722107,70.299728L134.038147,70.148888L134.361359,69.990875L134.677399,69.825676L135.00061,69.646111L135.323822,69.459366L135.654221,69.265434L135.977432,69.064323L136.307831,68.848846L136.631042,68.62619L136.961456,68.396347L137.284668,68.152138L137.615067,67.900749L137.938278,67.642181L138.26149,67.36924L138.584702,67.089119L138.900742,66.801819L139.216766,66.500153L139.532806,66.18412L139.841644,65.86808L140.150497,65.537689L140.452179,65.192924L140.75383,64.840981L141.048325,64.48185L141.335617,64.10836L141.622925,63.720501L141.903046,63.325462L142.17598,62.923237L142.441742,62.506649L142.700317,62.075695L142.951691,61.637562L143.188721,61.185059L143.418564,60.711014L143.64122,60.215412L143.748962,59.949657L143.849518,59.683907L143.950073,59.410969L144.050629,59.123665L144.143997,58.829182L144.237381,58.527512L144.323563,58.211475L144.40976,57.888264L144.495956,57.550686L144.574951,57.198738L144.646774,56.839615L144.718613,56.466118L144.783249,56.078262L144.847885,55.676037L144.90535,55.259449L144.955627,54.835682L145.005905,54.390362L145.049011,53.923496L145.092102,53.449444L145.128006,52.953854L145.156738,52.443893L145.178299,51.91238L145.199844,51.366505L145.214203,50.799084L145.221375,50.217293L145.228577,49.606781"/>
    <path transform="matrix(1,0,0,-1,107.359001,-93.807899)" style="stroke:none;fill:#00a0ff;fill-rule:evenodd" d="M117.611641,72.303658L117.388977,72.303658L117.159142,72.289291L116.914932,72.267738L116.670723,72.246193L116.412163,72.210281L116.1464,72.167191L115.880653,72.109726L115.600517,72.052269L115.313217,71.987625L115.025917,71.908615L114.731438,71.822426L114.429771,71.72905L114.120918,71.628494L113.812073,71.52076L113.496033,71.398651L113.18,71.269371L112.856789,71.132896L112.52639,70.98925L112.203178,70.83123L111.865601,70.666031L111.535202,70.493652L111.197617,70.306908L110.860039,70.112976L110.522453,69.911865L110.184883,69.703575L109.847298,69.480911L109.502533,69.251068L109.164963,69.006859L108.827377,68.75547L108.489792,68.496902L108.152206,68.223961L107.814629,67.943848L107.484238,67.65654L107.153839,67.354874L106.823441,67.038841L106.500229,66.715622L106.177017,66.385231L105.860977,66.040466L105.544937,65.688522L105.236092,65.322212L104.927254,64.948715L104.62558,64.56086L104.33828,64.165817L104.043793,63.756413L103.763672,63.339825L103.49073,62.908871L103.217796,62.463554L102.959229,62.003872L102.707832,61.529827L102.463631,61.034225L102.348709,60.77565L102.233788,60.502712L102.118874,60.229774L102.011131,59.949657L101.903397,59.662357L101.802834,59.360691L101.702278,59.059025L101.608902,58.735809L101.515533,58.412594L101.422157,58.075012L101.343147,57.723072L101.256973,57.363941L101.185127,56.990448L101.106117,56.602585L101.041489,56.200363L100.976837,55.790962L100.91938,55.360004L100.861923,54.921875L100.811653,54.462189L100.768547,53.995319L100.725449,53.506908L100.689537,53.004128L100.660812,52.479801L100.63208,51.941113L100.610527,51.388058L100.596161,50.813446L100.588982,50.224476L100.588982,49.606781"/>
    <path transform="matrix(1,0,0,-1,107.359001,-93.807899)" style="stroke:#ff00ff;stroke-width:0.05mm;fill:none" d="M117.611641,71.736237L117.410538,71.736237L117.195053,71.721863L116.972397,71.707504L116.735367,71.678772L116.498337,71.65004L116.246964,71.606949L115.988388,71.556671L115.722633,71.499214L115.456871,71.43457L115.176758,71.36274L114.889458,71.28373L114.602142,71.190361L114.307663,71.089806L114.005997,70.982063L113.70433,70.867142L113.395477,70.745041L113.079437,70.615753L112.763412,70.472107L112.44738,70.321266L112.124161,70.163254L111.800949,69.990875L111.477737,69.81131L111.147339,69.624565L110.816948,69.430634L110.486549,69.222343L110.156143,69.006859L109.825737,68.784203L109.495354,68.54718L109.164963,68.302971L108.841743,68.051582L108.511337,67.785828L108.180939,67.512894L107.857727,67.232773L107.534508,66.938286L107.218483,66.63662L106.902458,66.320587L106.586418,65.997368L106.277573,65.65979L105.968712,65.315025L105.667053,64.963081L105.372566,64.596771L105.078079,64.216095L104.797974,63.835423L104.510651,63.433197L104.237717,63.023792L103.97197,62.607204L103.706207,62.176254L103.454819,61.730934L103.210617,61.271248L102.973587,60.79002L102.86586,60.545811L102.750931,60.287239L102.643204,60.021488L102.542641,59.74855L102.434898,59.475613L102.341522,59.181126L102.240967,58.886642L102.147598,58.577789L102.061409,58.261761L101.975212,57.931358L101.889023,57.593781L101.8172,57.241833L101.73819,56.875523L101.666367,56.502033L101.601723,56.106991L101.537086,55.704773L101.479607,55.288185L101.422157,54.857224L101.37188,54.404728L101.328789,53.945045L101.29287,53.463814L101.256973,52.968216L101.228233,52.451073L101.199501,51.919559L101.177963,51.373688L101.163589,50.806267L101.156403,50.217293L101.156403,49.606781"/>
    <path transform="matrix(1,0,0,-1,107.359001,-93.807899)" style="stroke:#ff00ff;stroke-width:0.05mm;fill:none" d="M117.611641,71.549484L117.410538,71.542305L117.209419,71.535118L116.986763,71.52076L116.764091,71.492027L116.527069,71.463295L116.282867,71.420197L116.031471,71.369919L115.765717,71.312462L115.499969,71.255005L115.227043,71.175995L114.946907,71.096985L114.659607,71.010796L114.372307,70.91024L114.070641,70.809685L113.776154,70.694763L113.467308,70.572655L113.158447,70.436188L112.842422,70.299728L112.533569,70.148888L112.210358,69.990875L111.894333,69.825676L111.571114,69.646111L111.240723,69.459366L110.917503,69.265434L110.594276,69.064323L110.263893,68.848846L109.933487,68.62619L109.610283,68.396347L109.279869,68.152138L108.956657,67.900749L108.633453,67.642181L108.310226,67.36924L107.987007,67.089119L107.663803,66.801819L107.347763,66.500153L107.038933,66.18412L106.722893,65.86808L106.421219,65.537689L106.112373,65.192924L105.817886,64.840981L105.523407,64.48185L105.228912,64.10836L104.948792,63.720501L104.668678,63.325462L104.395737,62.923237L104.129982,62.506649L103.871407,62.075695L103.620018,61.637562L103.383003,61.185059L103.145973,60.711014L102.930496,60.215412L102.822762,59.949657L102.715019,59.683907L102.614464,59.410969L102.521088,59.123665L102.420532,58.829182L102.334343,58.527512L102.240967,58.211475L102.154778,57.888264L102.075768,57.550686L101.996773,57.198738L101.924927,56.839615L101.853119,56.466118L101.788467,56.078262L101.723831,55.676037L101.666367,55.259449L101.616081,54.835682L101.565811,54.383179L101.515533,53.923496L101.479607,53.449444L101.44371,52.953854L101.414978,52.443893L101.386253,51.91238L101.37188,51.366505L101.357521,50.799084L101.350342,50.217293L101.343147,49.606781L101.723831,49.606781"/>
    <path transform="matrix(1,0,0,-1,107.359001,-93.807899)" style="stroke:#ff00ff;stroke-width:0.05mm;fill:none" d="M145.228577,49.606781L144.847885,49.606781"/>
    <path transform="matrix(1,0,0,-1,107.359001,-93.807899)" style="stroke:#ff00ff;stroke-width:0.05mm;fill:none" d="M101.343147,49.606781L101.156403,49.606781"/>
    <path transform="matrix(1,0,0,-1,107.359001,-93.807899)" style="stroke:#ff00ff;stroke-width:0.05mm;fill:none" d="M145.228577,49.606781L145.415314,49.606781"/>
    <path transform="matrix(5.28623,0,0,-5.28738,-112.751007,-17.703217)" style="stroke:#0000ff;stroke-width:0.05mm;fill:none" d="M75.995911,31.262533L61.099289,31.262533"/>
    <path transform="matrix(5.28623,0,0,-5.28738,-112.751007,-17.703217)" style="stroke:#0000ff;stroke-width:0.05mm;fill:none" d="M81.670135,71.736237L81.878426,71.736237L82.093903,71.721863L82.316566,71.707504L82.546402,71.678772L82.790611,71.65004L83.034821,71.606949L83.293388,71.556671L83.559143,71.499214L83.832085,71.43457L84.105019,71.36274L84.392319,71.28373L84.679626,71.190361L84.974106,71.089806L85.27578,70.982063L85.577446,70.867142L85.886292,70.745041L86.202324,70.615753L86.518356,70.472107L86.834389,70.321266L87.157608,70.163254L87.48082,69.990875L87.811218,69.81131L88.13443,69.624565L88.464828,69.430634L88.795227,69.222343L89.125626,69.006859L89.456024,68.784203L89.786415,68.54718L90.116821,68.302971L90.447212,68.051582L90.770432,67.785828L91.100838,67.512894L91.424049,67.232773L91.747261,66.938286L92.063286,66.63662L92.379318,66.320587L92.695351,65.997368L93.004204,65.65979L93.313057,65.315025L93.614723,64.963081L93.90921,64.596771L94.20369,64.216095L94.49099,63.835423L94.771111,63.433197L95.044044,63.023792L95.316986,62.607204L95.575562,62.176254L95.826942,61.730934L96.071159,61.271248L96.308182,60.79002L96.423096,60.545811L96.530846,60.287239L96.63858,60.021488L96.746315,59.74855L96.84687,59.475613L96.947433,59.181126L97.040802,58.886642L97.134178,58.577789L97.220367,58.261761L97.306564,57.931358L97.392738,57.593781L97.471756,57.241833L97.543587,56.875523L97.615402,56.502033L97.680054,56.106991L97.74469,55.704773L97.802147,55.288185L97.859619,54.857224L97.909897,54.404728L97.952988,53.945045L97.996086,53.463814L98.03199,52.968216L98.060722,52.451073L98.082268,51.919559L98.103821,51.373688L98.118179,50.806267L98.125366,50.217293L98.132553,49.606781"/>
    <path transform="matrix(5.28623,0,0,-5.28738,-112.751007,-17.703217)" style="stroke:#0000ff;stroke-width:0.05mm;fill:none" d="M81.670135,71.549484L81.871239,71.542305L82.079536,71.535118L82.295013,71.52076L82.524857,71.492027L82.761879,71.463295L83.006088,71.420197L83.257477,71.369919L83.516045,71.312462L83.781807,71.255005L84.054741,71.175995L84.334862,71.096985L84.622162,71.010796L84.916649,70.91024L85.211128,70.809685L85.512802,70.694763L85.814468,70.572655L86.123322,70.436188L86.439346,70.299728L86.755379,70.148888L87.071411,69.990875L87.39463,69.825676L87.717842,69.646111L88.041054,69.459366L88.364273,69.265434L88.694672,69.064323L89.017891,68.848846L89.348282,68.62619L89.67868,68.396347L90.0019,68.152138L90.325104,67.900749L90.65551,67.642181L90.978729,67.36924L91.294754,67.089119L91.617966,66.801819L91.934013,66.500153L92.250031,66.18412L92.558884,65.86808L92.867737,65.537689L93.169403,65.192924L93.471069,64.840981L93.765549,64.48185L94.052849,64.10836L94.332977,63.720501L94.613098,63.325462L94.88604,62.923237L95.151794,62.506649L95.410362,62.075695L95.661751,61.637562L95.90596,61.185059L96.135796,60.711014L96.358459,60.215412L96.466194,59.949657L96.56675,59.683907L96.667313,59.410969L96.767868,59.123665L96.861237,58.829182L96.954613,58.527512L97.040802,58.211475L97.126999,57.888264L97.205994,57.550686L97.285011,57.198738L97.356834,56.839615L97.428658,56.466118L97.500488,56.078262L97.557945,55.676037L97.615402,55.259449L97.672859,54.835682L97.723145,54.390362L97.766243,53.923496L97.802147,53.449444L97.838066,52.953854L97.866798,52.443893L97.895523,51.91238L97.917076,51.366505L97.931435,50.799084L97.938614,50.217293L97.938614,49.606781"/>
    <path transform="matrix(5.28623,0,0,-5.28738,-112.751007,-17.703217)" style="stroke:#0000ff;stroke-width:0.05mm;fill:none" d="M75.995911,31.829954L90.662697,31.829954"/>
    <path transform="matrix(5.28623,0,0,-5.28738,-112.751007,-17.703217)" style="stroke:#0000ff;stroke-width:0.05mm;fill:none" d="M75.995911,71.549484L70.321693,71.549484"/>
    <path transform="matrix(5.28623,0,0,-5.28738,-112.751007,-17.703217)" style="stroke:#0000ff;stroke-width:0.05mm;fill:none" d="M75.995911,31.829954L61.336319,31.829954"/>
    <path transform="matrix(5.28623,0,0,-5.28738,-112.751007,-17.703217)" style="stroke:#0000ff;stroke-width:0.05mm;fill:none" d="M61.336319,31.829954L54.43388,38.732391"/>
    <path transform="matrix(5.28623,0,0,-5.28738,-112.751007,-17.703217)" style="stroke:#0000ff;stroke-width:0.05mm;fill:none" d="M90.662697,31.829954L97.565125,38.732391"/>
    <path transform="matrix(5.28623,0,0,-5.28738,-112.751007,-17.703217)" style="stroke:#0000ff;stroke-width:0.05mm;fill:none" d="M75.995911,31.262533L90.892532,31.262533"/>
    <path transform="matrix(5.28623,0,0,-5.28738,-112.751007,-17.703217)" style="stroke:#0000ff;stroke-width:0.05mm;fill:none" d="M75.995911,71.736237L81.670135,71.736237"/>
    <path transform="matrix(5.28623,0,0,-5.28738,-112.751007,-17.703217)" style="stroke:#0000ff;stroke-width:0.05mm;fill:none" d="M97.938614,49.606781L98.132553,49.606781"/>
    <path transform="matrix(5.28623,0,0,-5.28738,-112.751007,-17.703217)" style="stroke:#0000ff;stroke-width:0.05mm;fill:none" d="M90.892532,31.262533L98.132553,38.495365"/>
    <path transform="matrix(5.28623,0,0,-5.28738,-112.751007,-17.703217)" style="stroke:#0000ff;stroke-width:0.05mm;fill:none" d="M53.866459,38.495365L53.866459,49.606781"/>
    <path transform="matrix(5.28623,0,0,-5.28738,-112.751007,-17.703217)" style="stroke:#0000ff;stroke-width:0.05mm;fill:none" d="M97.938614,49.606781L97.565125,49.606781"/>
    <path transform="matrix(5.28623,0,0,-5.28738,-112.751007,-17.703217)" style="stroke:#0000ff;stroke-width:0.05mm;fill:none" d="M54.43388,38.732391L54.43388,49.606781"/>
    <path transform="matrix(5.28623,0,0,-5.28738,-112.751007,-17.703217)" style="stroke:#0000ff;stroke-width:0.05mm;fill:none" d="M98.132553,38.495365L98.132553,49.606781"/>
    <path transform="matrix(5.28623,0,0,-5.28738,-112.751007,-17.703217)" style="stroke:#0000ff;stroke-width:0.05mm;fill:none" d="M54.06039,49.606781L53.866459,49.606781"/>
    <path transform="matrix(5.28623,0,0,-5.28738,-112.751007,-17.703217)" style="stroke:#0000ff;stroke-width:0.05mm;fill:none" d="M75.995911,71.549484L81.670135,71.549484"/>
    <path transform="matrix(5.28623,0,0,-5.28738,-112.751007,-17.703217)" style="stroke:#0000ff;stroke-width:0.05mm;fill:none" d="M61.099289,31.262533L53.866459,38.495365"/>
    <path transform="matrix(5.28623,0,0,-5.28738,-112.751007,-17.703217)" style="stroke:#0000ff;stroke-width:0.05mm;fill:none" d="M70.321693,71.549484L70.127769,71.542305L69.919472,71.535118L69.703995,71.52076L69.474152,71.492027L69.237129,71.463295L68.99292,71.420197L68.741531,71.369919L68.482956,71.312462L68.217201,71.255005L67.944267,71.175995L67.664146,71.096985L67.376846,71.010796L67.082359,70.91024L66.787872,70.809685L66.486206,70.694763L66.18454,70.572655L65.875687,70.436188L65.559662,70.299728L65.243629,70.148888L64.927597,69.990875L64.604378,69.825676L64.281166,69.646111L63.957951,69.459366L63.634735,69.265434L63.304337,69.064323L62.981121,68.848846L62.650726,68.62619L62.320324,68.396347L61.997108,68.152138L61.666714,67.900749L61.343498,67.642181L61.020287,67.36924L60.697071,67.089119L60.381039,66.801819L60.065002,66.500153L59.74897,66.18412L59.440121,65.86808L59.131268,65.537689L58.829601,65.192924L58.527935,64.840981L58.233452,64.48185L57.946152,64.10836L57.658848,63.720501L57.38591,63.325462L57.112976,62.923237L56.847218,62.506649L56.581463,62.075695L56.337257,61.637562L56.093052,61.185059L55.863209,60.711014L55.640549,60.215412L55.532814,59.949657L55.432255,59.683907L55.331699,59.410969L55.231148,59.123665L55.137768,58.829182L55.044395,58.527512L54.95821,58.211475L54.872017,57.888264L54.793007,57.550686L54.714001,57.198738L54.634995,56.839615L54.570351,56.466118L54.498524,56.078262L54.441063,55.676037L54.383606,55.259449L54.326141,54.835682L54.275864,54.383179L54.232769,53.923496L54.189674,53.449444L54.160942,52.953854L54.125031,52.443893L54.103481,51.91238L54.081932,51.366505L54.06757,50.799084L54.06039,50.217293L54.06039,49.606781"/>
    <path transform="matrix(5.28623,0,0,-5.28738,-112.751007,-17.703217)" style="stroke:#0000ff;stroke-width:0.05mm;fill:none" d="M75.995911,71.736237L70.321693,71.736237"/>
    <path transform="matrix(5.28623,0,0,-5.28738,-112.751007,-17.703217)" style="stroke:#0000ff;stroke-width:0.05mm;fill:none" d="M97.565125,38.732391L97.565125,49.606781"/>
    <path transform="matrix(5.28623,0,0,-5.28738,-112.751007,-17.703217)" style="stroke:#0000ff;stroke-width:0.05mm;fill:none" d="M70.321693,71.736237L70.120583,71.736237L69.905106,71.721863L69.682442,71.707504L69.452606,71.678772L69.208397,71.65004L68.964188,71.606949L68.70562,71.556671L68.439865,71.499214L68.166924,71.43457L67.89399,71.36274L67.606689,71.28373L67.319382,71.190361L67.024895,71.089806L66.723228,70.982063L66.414383,70.867142L66.10553,70.745041L65.796684,70.615753L65.480652,70.472107L65.164619,70.321266L64.8414,70.163254L64.518188,69.990875L64.18779,69.81131L63.864578,69.624565L63.534176,69.430634L63.203781,69.222343L62.873386,69.006859L62.542984,68.784203L62.212589,68.54718L61.882187,68.302971L61.551792,68.051582L61.221397,67.785828L60.898178,67.512894L60.574963,67.232773L60.251747,66.938286L59.935722,66.63662L59.612499,66.320587L59.303654,65.997368L58.994804,65.65979L58.685951,65.315025L58.384285,64.963081L58.089802,64.596771L57.795315,64.216095L57.508015,63.835423L57.227898,63.433197L56.95496,63.023792L56.682022,62.607204L56.42345,62.176254L56.172062,61.730934L55.927853,61.271248L55.69083,60.79002L55.575909,60.545811L55.46817,60.287239L55.360428,60.021488L55.252689,59.74855L55.152134,59.475613L55.051582,59.181126L54.95821,58.886642L54.864838,58.577789L54.778645,58.261761L54.692451,57.931358L54.606258,57.593781L54.527256,57.241833L54.455429,56.875523L54.383606,56.502033L54.311775,56.106991L54.254318,55.704773L54.189674,55.288185L54.139397,54.857224L54.089119,54.404728L54.046024,53.945045L54.002926,53.463814L53.96701,52.968216L53.938282,52.451073L53.916737,51.919559L53.895187,51.373688L53.880825,50.806267L53.873638,50.217293L53.866459,49.606781"/>
    <path transform="matrix(5.28623,0,0,-5.28738,-112.751007,-17.703217)" style="stroke:#0000ff;stroke-width:0.05mm;fill:none" d="M54.06039,49.606781L54.43388,49.606781"/>
    <path transform="matrix(1,0,0,-1,20,-16.000015)" style="stroke:#000000;stroke-width:0.05mm;fill:none" d="M189.019058,163.999893L149.000076,204.027542L149.000076,263.993103L149.038071,267.259094L149.076035,270.373169L149.151993,273.411377L149.265884,276.335571L149.379776,279.183838L149.531662,281.956116L149.721512,284.614563L149.949326,287.19696L150.177109,289.665466L150.442886,292.096008L150.746658,294.412537L151.0504,296.691223L151.392136,298.855835L151.771805,300.982544L152.151505,303.033325L152.569168,305.008118L152.986801,306.906982L153.442429,308.767822L153.898056,310.552734L154.391647,312.261719L154.885239,313.970703L155.416794,315.565735L155.986343,317.160767L156.517868,318.67981L157.125381,320.160889L157.694901,321.604004L158.302414,323.047119L158.909927,324.414307L160.200851,327.03479L161.52977,329.541199L162.934586,331.971741L164.339432,334.326294L165.820206,336.604919L167.30098,338.807556L168.819748,340.972229L170.37648,343.060974L171.971146,345.111694L173.565811,347.086548L175.198441,349.023376L176.869095,350.884216L178.539719,352.707153L180.248306,354.454041L181.994858,356.163025L183.703445,357.833984L185.449997,359.429016L187.234543,360.94812L188.981064,362.429199L190.76561,363.872314L192.550125,365.239502L194.372604,366.568665L196.15715,367.859924L197.941696,369.075195L199.726242,370.252502L201.548721,371.35376L203.333237,372.417114L205.117752,373.442505L206.864273,374.429932L208.648849,375.34137L210.39537,376.214844L212.141953,377.050354L213.85054,377.809814L215.559158,378.531433L217.267715,379.214966L218.938339,379.860596L220.570969,380.430237L222.165634,380.961914L223.760361,381.455627L225.355057,381.911377L226.873764,382.329102L228.354568,382.670898L229.835342,382.974731L231.278183,383.278564L232.682968,383.506409L234.011887,383.696289L235.340805,383.810181L236.593765,383.924133L237.808731,384.000122L238.985794,384.000122L268.981018,384.000122L298.976257,384.000122L300.153259,384.000122L301.40625,383.924133L302.65918,383.810181L303.988098,383.696289L305.317017,383.506409L306.721863,383.278564L308.164673,382.974731L309.607422,382.670898L311.126221,382.329102L312.644958,381.911377L314.20166,381.455627L315.796326,380.961914L317.429016,380.430237L319.061646,379.860596L320.7323,379.214966L322.440857,378.531433L324.149475,377.809814L325.858032,377.050354L327.604614,376.214844L329.351135,375.34137L331.097717,374.429932L332.882202,373.442505L334.666809,372.417114L336.451294,371.35376L338.235779,370.252502L340.058289,369.075195L341.842834,367.859924L343.62738,366.568665L345.449829,365.239502L347.234314,363.872314L349.018921,362.429199L350.765442,360.94812L352.549927,359.429016L354.29657,357.833984L356.005127,356.163025L357.751709,354.454041L359.422302,352.707153L361.13092,350.884216L362.801514,349.023376L364.434143,347.086548L366.02887,345.111694L367.623535,343.060974L369.180237,340.972229L370.699036,338.807556L372.17981,336.604919L373.660583,334.326294L375.065369,331.971741L376.470215,329.541199L377.799194,327.03479L379.052124,324.414307L379.697571,323.047119L380.305115,321.604004L380.874634,320.160889L381.482117,318.67981L382.013672,317.160767L382.583191,315.565735L383.076782,313.970703L383.608398,312.261719L384.101929,310.552734L384.557617,308.767822L385.013184,306.906982L385.430847,305.008118L385.848511,303.033325L386.228149,300.982544L386.569885,298.855835L386.911621,296.691223L387.253357,294.412537L387.519165,292.096008L387.784912,289.665466L388.05072,287.19696L388.24054,284.614563L388.43042,281.956116L388.620178,279.183838L388.734131,276.335571L388.848022,273.411377L388.92395,270.373169L388.961975,267.259094L388.999939,263.993103L388.999939,204.027542L348.980896,163.999893L268.981018,163.999893L189.019058,163.999893z"/>
    <path transform="matrix(1,0,0,-1,-151,167)" style="stroke:#00e0e0;stroke-width:0.05mm;fill:none" d="M329.925781,368.21875L328.226563,369.160156L326.625,369.996094L324.921875,370.847656L323.359375,371.597656L321.808594,372.285156L320.167969,372.980469L318.566406,373.615234L316.921875,374.253906L315.574219,374.722656L314.011719,375.230469L312.417969,375.726563L310.996094,376.140625L309.679688,376.503906L308.28125,376.820313L305.664063,377.371094L304.40625,377.578125L303.28125,377.734375L302.136719,377.832031L302.113281,377.832031L300.945313,377.945313L299.996094,378L237.984375,378L237.039063,377.941406L235.886719,377.832031L235.863281,377.832031L234.71875,377.734375L233.59375,377.578125L232.398438,377.378906L231.046875,377.101563L229.652344,376.816406L228.367188,376.515625L226.945313,376.125L225.53125,375.722656L224,375.25L222.46875,374.738281L221.078125,374.253906L219.433594,373.623047L217.832031,372.980469L216.191406,372.285156L214.640625,371.597656L213.078125,370.847656L211.335938,369.976563L209.757813,369.171875L208.074219,368.21875L206.316406,367.210938L204.617188,366.199219L202.925781,365.179688L201.316406,364.113281L199.53125,362.898438L197.914063,361.724609L196.09375,360.394531L194.511719,359.183594L192.820313,357.820313L191.125,356.378906L189.339844,354.859375L187.875,353.523438L184.449219,350.167969L182.875,348.558594L181.289063,346.828125L179.769531,345.136719L178.15625,343.21875L176.707031,341.425781L175.109375,339.375L173.710938,337.496094L172.257813,335.429688L170.800781,333.257813L169.425781,331.144531L168.085938,328.898438L166.828125,326.714844L165.5,324.21875L164.332031,321.84375L163.78125,320.605469L163.277344,319.398438L162.699219,317.941406L162.683594,317.90625L162.132813,316.554688L161.648438,315.167969L161.640625,315.148438L161.085938,313.597656L160.636719,312.246094L159.664063,308.886719L159.273438,307.351563L158.820313,305.488281L158.429688,303.71875L158.023438,301.792969L157.681641,299.921875L157.296875,297.792969L156.988281,295.835938L156.691406,293.617188L156.390625,291.316406L156.152344,289.117188L155.919922,286.648438L155.699219,284.089844L155.523438,281.628906L155.371094,278.855469L155.261719,276.097656L155.148438,273.179688L155.074219,270.304688L155,263.992188L155,206.511719L191.503906,170L346.496094,170L383,206.511719L383,263.921875L382.925781,270.304688L382.851563,273.179688L382.738281,276.097656L382.628906,278.855469L382.445313,281.535156L382.257813,284.167969L382.070313,286.707031L381.820313,289.011719L381.558594,291.414063L381.308594,293.605469L380.982422,295.796875L380.648438,297.898438L380.3125,299.980469L379.976563,301.792969L379.570313,303.71875L379.179688,305.488281L378.726563,307.351563L378.335938,308.890625L377.855469,310.554688L377.345703,312.1875L376.859375,313.75L376.359375,315.167969L375.871094,316.546875L375.316406,317.90625L375.300781,317.941406L374.722656,319.398438L374.226563,320.585938L373.628906,321.84375L372.5,324.21875L371.171875,326.714844L369.914063,328.898438L368.574219,331.144531L367.199219,333.257813L365.742188,335.429688L364.289063,337.496094L362.890625,339.375L361.292969,341.425781L359.84375,343.21875L358.230469,345.136719L356.710938,346.828125L355.046875,348.601563L353.550781,350.167969L350.125,353.523438L348.660156,354.859375L346.875,356.378906L345.179688,357.820313L343.488281,359.183594L341.90625,360.394531L340.085938,361.732422L338.46875,362.898438L336.753906,364.066406L334.976563,365.214844L333.382813,366.199219L331.683594,367.210938L329.925781,368.21875z"/>
    <path transform="matrix(1,0,0,-1,-5,18)" style="stroke:#00e0e0;stroke-width:0.05mm;fill:none" d="M159.578125,207.886719L158.792969,208.101563L157.867188,208.3125L156.011719,208.703125L155.34375,208.8125L155.046875,208.855469L154.882813,208.867188L154.664063,208.878906L153.457031,208.996094L153.390625,209L92.605469,209L91.304688,208.875L91.074219,208.863281L90.953125,208.855469L90.625,208.808594L90.085938,208.71875L87.898438,208.269531L87.300781,208.132813L86.417969,207.886719L85.109375,207.515625L84.167969,207.222656L82.875,206.792969L81.9375,206.464844L80.804688,206.03125L79.382813,205.457031L78.222656,204.96875L77.03125,204.4375L75.734375,203.816406L74.421875,203.160156L73.257813,202.566406L72.023438,201.867188L70.265625,200.859375L68.941406,200.070313L67.613281,199.269531L66.570313,198.578125L64.972656,197.492188L63.726563,196.585938L62.0625,195.371094L60.804688,194.40625L59.660156,193.484375L56.515625,190.808594L55.65625,190.023438L52.511719,186.941406L51.425781,185.835938L50.167969,184.460938L48.832031,182.976563L47.554688,181.457031L46.445313,180.082031L44.976563,178.195313L43.914063,176.769531L42.753906,175.121094L41.535156,173.304688L40.386719,171.539063L39.417969,169.914063L38.296875,167.964844L37.269531,166.039063L36.476563,164.421875L36.148438,163.691406L35.789063,162.824219L35.214844,161.378906L35.058594,161.003906L35.039063,160.960938L34.859375,160.519531L34.515625,159.535156L34.492188,159.460938L34,158.085938L33.730469,157.273438L32.972656,154.660156L32.65625,153.417969L32.320313,152.039063L31.960938,150.40625L31.644531,148.898438L31.363281,147.347656L31.019531,145.445313L30.769531,143.871094L30.515625,141.964844L30.242188,139.875L30.0625,138.195313L29.835938,135.789063L29.625,133.355469L29.472656,131.203125L29.351563,128.988281L29.246094,126.304688L29.132813,123.402344L29.074219,121.070313L29,114.757813L29,65.796875L53.789063,41L192.210938,41L217,65.796875L217,114.6875L216.925781,121.070313L216.867188,123.402344L216.753906,126.304688L216.65625,128.757813L216.496094,131.113281L216.3125,133.695313L216.152344,135.882813L215.6875,140.148438L215.480469,141.964844L215.234375,143.640625L214.902344,145.710938L214.585938,147.679688L214.378906,148.792969L214.039063,150.40625L213.679688,152.039063L213.339844,153.429688L213.011719,154.71875L212.710938,155.765625L211.863281,158.484375L211.191406,160.378906L210.8125,161.3125L210.785156,161.378906L210.199219,162.851563L209.957031,163.4375L208.636719,166.210938L207.703125,167.964844L206.582031,169.914063L205.613281,171.539063L204.464844,173.304688L203.246094,175.121094L202.085938,176.769531L201.023438,178.195313L199.554688,180.082031L198.445313,181.457031L197.167969,182.976563L195.921875,184.363281L194.582031,185.789063L193.34375,187.085938L190.34375,190.023438L189.484375,190.808594L186.339844,193.484375L185.195313,194.40625L183.792969,195.480469L182.363281,196.53125L181.0625,197.46875L179.65625,198.425781L178.347656,199.273438L176.894531,200.167969L175.734375,200.859375L174.070313,201.8125L172.722656,202.558594L171.460938,203.21875L170.265625,203.816406L168.96875,204.4375L167.777344,204.96875L166.640625,205.449219L165.34375,205.964844L163.988281,206.488281L163.144531,206.78125L162.066406,207.132813L160.625,207.582031L159.578125,207.886719z"/>
    <path transform="matrix(0,0,0,-1,118,18)" style="stroke:#00e0e0;stroke-width:0.05mm;fill:none" d="M119.759567,229L123,21"/>
</svg>
